<svg xmlns="http://www.w3.org/2000/svg" xmlns:xlink="http://www.w3.org/1999/xlink" zoomAndPan="magnify" preserveAspectRatio="xMidYMid meet" version="1.0" viewBox="78.6 27.21 217.76 111.08"><defs><g/></defs><g fill="#000000" fill-opacity="1"><g transform="translate(87.731257, 106.085359)"><g><path d="M 30.53125 0 C 33.757812 0 36.859375 -0.539062 39.828125 -1.625 C 42.796875 -2.71875 45.476562 -4.222656 47.875 -6.140625 C 50.28125 -8.054688 52.363281 -10.304688 54.125 -12.890625 C 55.894531 -15.484375 57.15625 -18.25 57.90625 -21.1875 L 57.90625 0 Z M 36.28125 -78.875 C 34.320312 -78.875 32.6875 -78.101562 31.375 -76.5625 C 30.0625 -75.019531 29.40625 -73.3125 29.40625 -71.4375 L 29.40625 0 L 2.8125 0 C 4.695312 0 6.296875 -0.769531 7.609375 -2.3125 C 8.921875 -3.851562 9.578125 -5.5625 9.578125 -7.4375 L 9.578125 -71.4375 C 9.578125 -73.3125 8.921875 -75.019531 7.609375 -76.5625 C 6.296875 -78.101562 4.695312 -78.875 2.8125 -78.875 Z M 36.28125 -78.875 "/></g></g></g><g fill="#000000" fill-opacity="1"><g transform="translate(148.457175, 106.085359)"><g><path d="M 50.25 -39.765625 C 53.175781 -39.617188 55.9375 -39 58.53125 -37.90625 C 61.125 -36.820312 63.378906 -35.378906 65.296875 -33.578125 C 67.210938 -31.773438 68.734375 -29.707031 69.859375 -27.375 C 70.984375 -25.050781 71.546875 -22.535156 71.546875 -19.828125 C 71.546875 -17.128906 70.960938 -14.578125 69.796875 -12.171875 C 68.628906 -9.765625 67.03125 -7.660156 65 -5.859375 C 62.976562 -4.054688 60.597656 -2.628906 57.859375 -1.578125 C 55.117188 -0.523438 52.207031 0 49.125 0 L 35.828125 0 C 37.628906 0 39.316406 -0.539062 40.890625 -1.625 C 42.472656 -2.71875 43.863281 -4.164062 45.0625 -5.96875 C 46.269531 -7.769531 47.210938 -9.875 47.890625 -12.28125 C 48.566406 -14.6875 48.90625 -17.238281 48.90625 -19.9375 C 48.90625 -22.570312 48.566406 -25.070312 47.890625 -27.4375 C 47.210938 -29.800781 46.269531 -31.863281 45.0625 -33.625 C 43.863281 -35.394531 42.472656 -36.804688 40.890625 -37.859375 C 39.316406 -38.910156 37.628906 -39.4375 35.828125 -39.4375 L 33.578125 -39.4375 C 35.148438 -39.4375 36.628906 -39.960938 38.015625 -41.015625 C 39.410156 -42.066406 40.613281 -43.472656 41.625 -45.234375 C 42.644531 -47.003906 43.453125 -49.070312 44.046875 -51.4375 C 44.648438 -53.800781 44.953125 -56.296875 44.953125 -58.921875 C 44.953125 -61.628906 44.648438 -64.179688 44.046875 -66.578125 C 43.453125 -68.984375 42.644531 -71.085938 41.625 -72.890625 C 40.613281 -74.703125 39.410156 -76.148438 38.015625 -77.234375 C 36.628906 -78.328125 35.148438 -78.875 33.578125 -78.875 L 45.1875 -78.875 C 47.882812 -78.875 50.4375 -78.347656 52.84375 -77.296875 C 55.25 -76.242188 57.351562 -74.816406 59.15625 -73.015625 C 60.957031 -71.210938 62.363281 -69.109375 63.375 -66.703125 C 64.394531 -64.296875 64.90625 -61.703125 64.90625 -58.921875 C 64.90625 -56.671875 64.523438 -54.507812 63.765625 -52.4375 C 63.015625 -50.375 61.984375 -48.5 60.671875 -46.8125 C 59.359375 -45.125 57.816406 -43.660156 56.046875 -42.421875 C 54.285156 -41.179688 52.351562 -40.296875 50.25 -39.765625 Z M 29.40625 -78.875 L 29.40625 0 L 2.8125 0 C 4.695312 0 6.296875 -0.769531 7.609375 -2.3125 C 8.921875 -3.851562 9.578125 -5.5625 9.578125 -7.4375 L 9.578125 -71.4375 C 9.578125 -73.3125 8.921875 -75.019531 7.609375 -76.5625 C 6.296875 -78.101562 4.695312 -78.875 2.8125 -78.875 Z M 29.40625 -78.875 "/></g></g></g><g fill="#000000" fill-opacity="1"><g transform="translate(222.815443, 106.085359)"><g><path d="M 61.515625 -21.75 C 61.742188 -18.738281 61.144531 -15.9375 59.71875 -13.34375 C 58.289062 -10.757812 56.257812 -8.488281 53.625 -6.53125 C 51 -4.582031 47.898438 -3.023438 44.328125 -1.859375 C 40.765625 -0.691406 37.03125 -0.0703125 33.125 0 C 34.476562 -0.144531 35.773438 -0.554688 37.015625 -1.234375 C 38.253906 -1.910156 39.359375 -2.753906 40.328125 -3.765625 C 41.304688 -4.785156 42.078125 -5.953125 42.640625 -7.265625 C 43.203125 -8.578125 43.484375 -9.945312 43.484375 -11.375 C 43.484375 -14.226562 42.488281 -16.929688 40.5 -19.484375 C 38.507812 -22.046875 35.992188 -24.546875 32.953125 -26.984375 C 29.910156 -29.421875 26.644531 -31.878906 23.15625 -34.359375 C 19.664062 -36.835938 16.394531 -39.429688 13.34375 -42.140625 C 10.300781 -44.847656 7.785156 -47.703125 5.796875 -50.703125 C 3.804688 -53.703125 2.8125 -56.96875 2.8125 -60.5 C 2.8125 -63.882812 3.734375 -66.738281 5.578125 -69.0625 C 7.421875 -71.394531 9.75 -73.289062 12.5625 -74.75 C 15.375 -76.21875 18.453125 -77.269531 21.796875 -77.90625 C 25.140625 -78.550781 28.351562 -78.875 31.4375 -78.875 L 33.125 -78.875 C 30.5 -78.644531 28.171875 -77.664062 26.140625 -75.9375 C 24.109375 -74.207031 22.984375 -71.765625 22.765625 -68.609375 C 22.535156 -65.679688 23.300781 -62.976562 25.0625 -60.5 C 26.832031 -58.019531 29.085938 -55.632812 31.828125 -53.34375 C 34.566406 -51.050781 37.609375 -48.78125 40.953125 -46.53125 C 44.296875 -44.28125 47.429688 -41.894531 50.359375 -39.375 C 53.296875 -36.863281 55.8125 -34.179688 57.90625 -31.328125 C 60.007812 -28.472656 61.210938 -25.28125 61.515625 -21.75 Z M 56.453125 -57.578125 C 55.992188 -59.828125 55.179688 -62.113281 54.015625 -64.4375 C 52.859375 -66.769531 51.394531 -68.953125 49.625 -70.984375 C 47.863281 -73.015625 45.835938 -74.722656 43.546875 -76.109375 C 41.253906 -77.492188 38.757812 -78.335938 36.0625 -78.640625 C 38.457031 -78.421875 40.722656 -78.140625 42.859375 -77.796875 C 45.003906 -77.460938 47.28125 -77.296875 49.6875 -77.296875 C 50.96875 -77.296875 52.226562 -77.40625 53.46875 -77.625 C 54.707031 -77.851562 55.703125 -78.269531 56.453125 -78.875 Z M 20.28125 -5.40625 C 20.507812 -4.132812 21.484375 -2.953125 23.203125 -1.859375 C 24.929688 -0.765625 27.375 -0.144531 30.53125 0 C 26.695312 -0.144531 23.109375 -0.742188 19.765625 -1.796875 C 16.429688 -2.847656 13.503906 -4.238281 10.984375 -5.96875 C 8.472656 -7.695312 6.484375 -9.707031 5.015625 -12 C 3.546875 -14.289062 2.8125 -16.789062 2.8125 -19.5 C 2.8125 -21.144531 3.128906 -22.695312 3.765625 -24.15625 C 4.410156 -25.625 5.273438 -26.898438 6.359375 -27.984375 C 7.453125 -29.078125 8.726562 -29.941406 10.1875 -30.578125 C 11.65625 -31.222656 13.21875 -31.546875 14.875 -31.546875 C 16.519531 -31.546875 18.078125 -31.222656 19.546875 -30.578125 C 21.015625 -29.941406 22.289062 -29.078125 23.375 -27.984375 C 24.46875 -26.898438 25.332031 -25.625 25.96875 -24.15625 C 26.601562 -22.695312 26.921875 -21.144531 26.921875 -19.5 C 26.921875 -17.84375 26.601562 -16.257812 25.96875 -14.75 C 25.332031 -13.25 24.488281 -11.972656 23.4375 -10.921875 C 22.238281 -9.648438 21.375 -8.675781 20.84375 -8 C 20.320312 -7.320312 20.132812 -6.457031 20.28125 -5.40625 Z M 20.28125 -5.40625 "/></g></g></g><g fill="#000000" fill-opacity="1"><g transform="translate(78.115486, 135.165969)"><g><path d="M 6.609375 -11.875 C 6.191406 -11.851562 5.890625 -11.804688 5.703125 -11.734375 C 5.515625 -11.671875 5.382812 -11.539062 5.3125 -11.34375 C 5.25 -11.144531 5.21875 -10.828125 5.21875 -10.390625 L 5.21875 -1.484375 C 5.21875 -1.160156 5.238281 -0.921875 5.28125 -0.765625 C 5.332031 -0.617188 5.414062 -0.519531 5.53125 -0.46875 C 5.644531 -0.414062 5.832031 -0.390625 6.09375 -0.390625 L 6.671875 -0.390625 C 7.066406 -0.390625 7.5 -0.59375 7.96875 -1 C 8.445312 -1.40625 8.875 -1.9375 9.25 -2.59375 C 9.632812 -3.257812 9.890625 -3.945312 10.015625 -4.65625 L 10.40625 -4.65625 C 10.375 -4.25 10.359375 -3.722656 10.359375 -3.078125 C 10.359375 -1.828125 10.398438 -0.800781 10.484375 0 C 9.703125 -0.03125 8.382812 -0.046875 6.53125 -0.046875 C 3.832031 -0.046875 1.816406 -0.03125 0.484375 0 L 0.484375 -0.34375 C 0.847656 -0.363281 1.113281 -0.410156 1.28125 -0.484375 C 1.445312 -0.554688 1.554688 -0.6875 1.609375 -0.875 C 1.671875 -1.070312 1.703125 -1.390625 1.703125 -1.828125 L 1.703125 -10.390625 C 1.703125 -10.828125 1.671875 -11.144531 1.609375 -11.34375 C 1.546875 -11.539062 1.429688 -11.671875 1.265625 -11.734375 C 1.109375 -11.804688 0.847656 -11.851562 0.484375 -11.875 L 0.484375 -12.21875 C 1.140625 -12.1875 2.164062 -12.171875 3.5625 -12.171875 C 4.882812 -12.171875 5.898438 -12.1875 6.609375 -12.21875 Z M 6.609375 -11.875 "/></g></g></g><g fill="#000000" fill-opacity="1"><g transform="translate(88.91733, 135.165969)"><g><path d="M 4.96875 -9.203125 C 6.382812 -9.203125 7.476562 -8.828125 8.25 -8.078125 C 9.019531 -7.335938 9.40625 -6.132812 9.40625 -4.46875 C 9.40625 -2.800781 9.019531 -1.597656 8.25 -0.859375 C 7.476562 -0.128906 6.382812 0.234375 4.96875 0.234375 C 3.550781 0.234375 2.457031 -0.128906 1.6875 -0.859375 C 0.914062 -1.597656 0.53125 -2.800781 0.53125 -4.46875 C 0.53125 -6.132812 0.914062 -7.335938 1.6875 -8.078125 C 2.457031 -8.828125 3.550781 -9.203125 4.96875 -9.203125 Z M 4.96875 -8.859375 C 4.601562 -8.859375 4.3125 -8.492188 4.09375 -7.765625 C 3.875 -7.046875 3.765625 -5.945312 3.765625 -4.46875 C 3.765625 -3 3.875 -1.90625 4.09375 -1.1875 C 4.3125 -0.46875 4.601562 -0.109375 4.96875 -0.109375 C 5.34375 -0.109375 5.640625 -0.46875 5.859375 -1.1875 C 6.078125 -1.90625 6.1875 -3 6.1875 -4.46875 C 6.1875 -5.945312 6.078125 -7.046875 5.859375 -7.765625 C 5.640625 -8.492188 5.34375 -8.859375 4.96875 -8.859375 Z M 4.96875 -8.859375 "/></g></g></g><g fill="#000000" fill-opacity="1"><g transform="translate(98.856409, 135.165969)"><g><path d="M 7.1875 -9.203125 C 8.101562 -9.203125 8.753906 -8.972656 9.140625 -8.515625 C 9.304688 -8.304688 9.429688 -8.023438 9.515625 -7.671875 C 9.597656 -7.316406 9.640625 -6.851562 9.640625 -6.28125 L 9.640625 -1.609375 C 9.640625 -1.128906 9.707031 -0.800781 9.84375 -0.625 C 9.988281 -0.445312 10.238281 -0.359375 10.59375 -0.359375 L 10.59375 0 C 9.351562 -0.0390625 8.550781 -0.0625 8.1875 -0.0625 C 7.789062 -0.0625 6.972656 -0.0390625 5.734375 0 L 5.734375 -0.359375 C 6.035156 -0.359375 6.242188 -0.445312 6.359375 -0.625 C 6.472656 -0.800781 6.53125 -1.128906 6.53125 -1.609375 L 6.53125 -7.21875 C 6.53125 -7.582031 6.460938 -7.851562 6.328125 -8.03125 C 6.191406 -8.21875 5.976562 -8.3125 5.6875 -8.3125 C 5.34375 -8.3125 5.046875 -8.191406 4.796875 -7.953125 C 4.554688 -7.710938 4.4375 -7.414062 4.4375 -7.0625 L 4.4375 -1.609375 C 4.4375 -1.128906 4.492188 -0.800781 4.609375 -0.625 C 4.722656 -0.445312 4.929688 -0.359375 5.234375 -0.359375 L 5.234375 0 C 4.078125 -0.0390625 3.316406 -0.0625 2.953125 -0.0625 C 2.554688 -0.0625 1.691406 -0.0390625 0.359375 0 L 0.359375 -0.359375 C 0.710938 -0.359375 0.960938 -0.445312 1.109375 -0.625 C 1.253906 -0.800781 1.328125 -1.128906 1.328125 -1.609375 L 1.328125 -7.078125 C 1.328125 -7.609375 1.253906 -7.992188 1.109375 -8.234375 C 0.960938 -8.472656 0.710938 -8.59375 0.359375 -8.59375 L 0.359375 -8.953125 C 0.734375 -8.921875 1.09375 -8.90625 1.4375 -8.90625 C 2.632812 -8.90625 3.632812 -8.988281 4.4375 -9.15625 L 4.4375 -7.90625 C 4.957031 -8.769531 5.875 -9.203125 7.1875 -9.203125 Z M 7.1875 -9.203125 "/></g></g></g><g fill="#000000" fill-opacity="1"><g transform="translate(109.641002, 135.165969)"><g><path d="M 5.75 -1.640625 C 6.59375 -1.640625 7.289062 -2.023438 7.84375 -2.796875 L 8.125 -2.6875 C 7.875 -1.882812 7.445312 -1.195312 6.84375 -0.625 C 6.238281 -0.0507812 5.46875 0.234375 4.53125 0.234375 C 3.3125 0.234375 2.335938 -0.132812 1.609375 -0.875 C 0.890625 -1.625 0.53125 -2.820312 0.53125 -4.46875 C 0.53125 -6.050781 0.9375 -7.234375 1.75 -8.015625 C 2.5625 -8.804688 3.632812 -9.203125 4.96875 -9.203125 C 7.144531 -9.203125 8.234375 -7.910156 8.234375 -5.328125 L 3.78125 -5.328125 C 3.769531 -5.191406 3.765625 -4.988281 3.765625 -4.71875 C 3.765625 -3.613281 3.957031 -2.820312 4.34375 -2.34375 C 4.726562 -1.875 5.195312 -1.640625 5.75 -1.640625 Z M 4.859375 -8.8125 C 4.210938 -8.8125 3.832031 -7.757812 3.71875 -5.65625 L 5.71875 -5.65625 C 5.726562 -6.582031 5.660156 -7.335938 5.515625 -7.921875 C 5.367188 -8.515625 5.148438 -8.8125 4.859375 -8.8125 Z M 4.859375 -8.8125 "/></g></g></g><g fill="#000000" fill-opacity="1"><g transform="translate(118.320442, 135.165969)"><g/></g></g><g fill="#000000" fill-opacity="1"><g transform="translate(122.168387, 135.165969)"><g><path d="M 6.8125 -9.203125 C 7.71875 -9.203125 8.445312 -8.832031 9 -8.09375 C 9.550781 -7.363281 9.828125 -6.289062 9.828125 -4.875 C 9.828125 -3.039062 9.457031 -1.726562 8.71875 -0.9375 C 7.976562 -0.15625 7.003906 0.234375 5.796875 0.234375 C 5.429688 0.234375 5.125 0.222656 4.875 0.203125 C 4.625 0.179688 4.398438 0.125 4.203125 0.03125 C 3.773438 -0.132812 3.328125 -0.21875 2.859375 -0.21875 C 2.515625 -0.21875 2.191406 -0.171875 1.890625 -0.078125 C 1.597656 0.00390625 1.367188 0.125 1.203125 0.28125 L 0.96875 0.109375 C 1.050781 -0.140625 1.09375 -0.457031 1.09375 -0.84375 L 1.09375 -11.4375 C 1.09375 -11.957031 1.019531 -12.335938 0.875 -12.578125 C 0.726562 -12.828125 0.476562 -12.953125 0.125 -12.953125 L 0.125 -13.3125 C 0.476562 -13.28125 0.832031 -13.265625 1.1875 -13.265625 C 2.382812 -13.265625 3.390625 -13.34375 4.203125 -13.5 L 4.203125 -7.90625 C 4.722656 -8.769531 5.59375 -9.203125 6.8125 -9.203125 Z M 5 -0.109375 C 6.0625 -0.109375 6.59375 -1.5625 6.59375 -4.46875 C 6.59375 -5.882812 6.488281 -6.878906 6.28125 -7.453125 C 6.070312 -8.023438 5.789062 -8.3125 5.4375 -8.3125 C 5.101562 -8.3125 4.8125 -8.191406 4.5625 -7.953125 C 4.320312 -7.710938 4.203125 -7.414062 4.203125 -7.0625 L 4.203125 -0.3125 C 4.460938 -0.175781 4.726562 -0.109375 5 -0.109375 Z M 5 -0.109375 "/></g></g></g><g fill="#000000" fill-opacity="1"><g transform="translate(132.538853, 135.165969)"><g><path d="M 9.46875 -1.875 C 9.46875 -1.351562 9.535156 -0.96875 9.671875 -0.71875 C 9.816406 -0.476562 10.066406 -0.359375 10.421875 -0.359375 L 10.421875 0 C 10.066406 -0.03125 9.710938 -0.046875 9.359375 -0.046875 C 8.160156 -0.046875 7.160156 0.03125 6.359375 0.1875 L 6.359375 -1.046875 C 5.835938 -0.191406 4.921875 0.234375 3.609375 0.234375 C 2.691406 0.234375 2.039062 0.00390625 1.65625 -0.453125 C 1.488281 -0.660156 1.363281 -0.9375 1.28125 -1.28125 C 1.195312 -1.632812 1.15625 -2.097656 1.15625 -2.671875 L 1.15625 -7.078125 C 1.15625 -7.609375 1.082031 -7.992188 0.9375 -8.234375 C 0.789062 -8.472656 0.539062 -8.59375 0.1875 -8.59375 L 0.1875 -8.953125 C 0.539062 -8.921875 0.898438 -8.90625 1.265625 -8.90625 C 2.460938 -8.90625 3.460938 -8.988281 4.265625 -9.15625 L 4.265625 -1.75 C 4.265625 -1.375 4.328125 -1.097656 4.453125 -0.921875 C 4.585938 -0.742188 4.804688 -0.65625 5.109375 -0.65625 C 5.441406 -0.65625 5.734375 -0.769531 5.984375 -1 C 6.234375 -1.238281 6.359375 -1.539062 6.359375 -1.90625 L 6.359375 -7.078125 C 6.359375 -7.609375 6.285156 -7.992188 6.140625 -8.234375 C 5.992188 -8.472656 5.742188 -8.59375 5.390625 -8.59375 L 5.390625 -8.953125 C 5.742188 -8.921875 6.097656 -8.90625 6.453125 -8.90625 C 7.648438 -8.90625 8.65625 -8.988281 9.46875 -9.15625 Z M 9.46875 -1.875 "/></g></g></g><g fill="#000000" fill-opacity="1"><g transform="translate(143.27168, 135.165969)"><g><path d="M 2.78125 -13.5 C 3.375 -13.5 3.832031 -13.367188 4.15625 -13.109375 C 4.488281 -12.859375 4.65625 -12.492188 4.65625 -12.015625 C 4.65625 -11.535156 4.488281 -11.164062 4.15625 -10.90625 C 3.832031 -10.65625 3.375 -10.53125 2.78125 -10.53125 C 2.164062 -10.53125 1.695312 -10.65625 1.375 -10.90625 C 1.050781 -11.164062 0.890625 -11.535156 0.890625 -12.015625 C 0.890625 -12.492188 1.050781 -12.859375 1.375 -13.109375 C 1.695312 -13.367188 2.164062 -13.5 2.78125 -13.5 Z M 4.4375 -1.609375 C 4.4375 -1.128906 4.507812 -0.800781 4.65625 -0.625 C 4.800781 -0.445312 5.050781 -0.359375 5.40625 -0.359375 L 5.40625 0 C 4.164062 -0.0390625 3.347656 -0.0625 2.953125 -0.0625 C 2.554688 -0.0625 1.691406 -0.0390625 0.359375 0 L 0.359375 -0.359375 C 0.710938 -0.359375 0.960938 -0.445312 1.109375 -0.625 C 1.253906 -0.800781 1.328125 -1.128906 1.328125 -1.609375 L 1.328125 -7.078125 C 1.328125 -7.609375 1.253906 -7.992188 1.109375 -8.234375 C 0.960938 -8.472656 0.710938 -8.59375 0.359375 -8.59375 L 0.359375 -8.953125 C 0.734375 -8.921875 1.09375 -8.90625 1.4375 -8.90625 C 2.632812 -8.90625 3.632812 -8.988281 4.4375 -9.15625 Z M 4.4375 -1.609375 "/></g></g></g><g fill="#000000" fill-opacity="1"><g transform="translate(148.96594, 135.165969)"><g><path d="M 4.390625 -1.609375 C 4.390625 -1.128906 4.457031 -0.800781 4.59375 -0.625 C 4.738281 -0.445312 4.992188 -0.359375 5.359375 -0.359375 L 5.359375 0 C 4.109375 -0.0390625 3.289062 -0.0625 2.90625 -0.0625 C 2.507812 -0.0625 1.644531 -0.0390625 0.3125 0 L 0.3125 -0.359375 C 0.664062 -0.359375 0.914062 -0.445312 1.0625 -0.625 C 1.207031 -0.800781 1.28125 -1.128906 1.28125 -1.609375 L 1.28125 -11.4375 C 1.28125 -11.957031 1.207031 -12.335938 1.0625 -12.578125 C 0.914062 -12.828125 0.664062 -12.953125 0.3125 -12.953125 L 0.3125 -13.3125 C 0.664062 -13.28125 1.019531 -13.265625 1.375 -13.265625 C 2.570312 -13.265625 3.578125 -13.34375 4.390625 -13.5 Z M 4.390625 -1.609375 "/></g></g></g><g fill="#000000" fill-opacity="1"><g transform="translate(154.625695, 135.165969)"><g><path d="M 9.265625 -1.90625 C 9.265625 -1.375 9.335938 -0.984375 9.484375 -0.734375 C 9.628906 -0.492188 9.878906 -0.375 10.234375 -0.375 L 10.234375 -0.015625 C 9.878906 -0.046875 9.523438 -0.0625 9.171875 -0.0625 C 7.972656 -0.0625 6.96875 0.015625 6.15625 0.171875 L 6.15625 -1.046875 C 5.914062 -0.597656 5.628906 -0.269531 5.296875 -0.0625 C 4.972656 0.132812 4.5625 0.234375 4.0625 0.234375 C 3 0.234375 2.144531 -0.15625 1.5 -0.9375 C 0.851562 -1.726562 0.53125 -2.929688 0.53125 -4.546875 C 0.53125 -6.078125 0.875 -7.234375 1.5625 -8.015625 C 2.25 -8.804688 3.1875 -9.203125 4.375 -9.203125 C 5.101562 -9.203125 5.695312 -9.054688 6.15625 -8.765625 L 6.15625 -11.4375 C 6.15625 -11.957031 6.082031 -12.335938 5.9375 -12.578125 C 5.800781 -12.828125 5.554688 -12.953125 5.203125 -12.953125 L 5.203125 -13.3125 C 5.554688 -13.28125 5.910156 -13.265625 6.265625 -13.265625 C 7.460938 -13.265625 8.460938 -13.34375 9.265625 -13.5 Z M 4.921875 -0.65625 C 5.253906 -0.65625 5.539062 -0.769531 5.78125 -1 C 6.03125 -1.238281 6.15625 -1.539062 6.15625 -1.90625 L 6.15625 -8.40625 C 5.90625 -8.550781 5.640625 -8.625 5.359375 -8.625 C 4.816406 -8.625 4.414062 -8.28125 4.15625 -7.59375 C 3.894531 -6.914062 3.765625 -5.878906 3.765625 -4.484375 C 3.765625 -3.066406 3.867188 -2.070312 4.078125 -1.5 C 4.285156 -0.9375 4.566406 -0.65625 4.921875 -0.65625 Z M 4.921875 -0.65625 "/></g></g></g><g fill="#000000" fill-opacity="1"><g transform="translate(165.134197, 135.165969)"><g><path d="M 5.75 -1.640625 C 6.59375 -1.640625 7.289062 -2.023438 7.84375 -2.796875 L 8.125 -2.6875 C 7.875 -1.882812 7.445312 -1.195312 6.84375 -0.625 C 6.238281 -0.0507812 5.46875 0.234375 4.53125 0.234375 C 3.3125 0.234375 2.335938 -0.132812 1.609375 -0.875 C 0.890625 -1.625 0.53125 -2.820312 0.53125 -4.46875 C 0.53125 -6.050781 0.9375 -7.234375 1.75 -8.015625 C 2.5625 -8.804688 3.632812 -9.203125 4.96875 -9.203125 C 7.144531 -9.203125 8.234375 -7.910156 8.234375 -5.328125 L 3.78125 -5.328125 C 3.769531 -5.191406 3.765625 -4.988281 3.765625 -4.71875 C 3.765625 -3.613281 3.957031 -2.820312 4.34375 -2.34375 C 4.726562 -1.875 5.195312 -1.640625 5.75 -1.640625 Z M 4.859375 -8.8125 C 4.210938 -8.8125 3.832031 -7.757812 3.71875 -5.65625 L 5.71875 -5.65625 C 5.726562 -6.582031 5.660156 -7.335938 5.515625 -7.921875 C 5.367188 -8.515625 5.148438 -8.8125 4.859375 -8.8125 Z M 4.859375 -8.8125 "/></g></g></g><g fill="#000000" fill-opacity="1"><g transform="translate(173.813637, 135.165969)"><g><path d="M 6.671875 -9.203125 C 7.234375 -9.203125 7.632812 -9.03125 7.875 -8.6875 C 8.125 -8.34375 8.25 -7.929688 8.25 -7.453125 C 8.25 -6.941406 8.101562 -6.53125 7.8125 -6.21875 C 7.519531 -5.914062 7.140625 -5.765625 6.671875 -5.765625 C 6.171875 -5.765625 5.785156 -5.875 5.515625 -6.09375 C 5.253906 -6.320312 5.125 -6.628906 5.125 -7.015625 C 5.125 -7.691406 5.421875 -8.222656 6.015625 -8.609375 C 5.804688 -8.609375 5.617188 -8.570312 5.453125 -8.5 C 5.171875 -8.375 4.929688 -8.164062 4.734375 -7.875 C 4.535156 -7.59375 4.4375 -7.285156 4.4375 -6.953125 L 4.4375 -1.78125 C 4.4375 -1.238281 4.546875 -0.863281 4.765625 -0.65625 C 4.992188 -0.457031 5.378906 -0.359375 5.921875 -0.359375 L 5.921875 0 C 5.773438 0 5.648438 -0.00390625 5.546875 -0.015625 C 4.335938 -0.046875 3.53125 -0.0625 3.125 -0.0625 C 2.769531 -0.0625 1.96875 -0.046875 0.71875 -0.015625 C 0.632812 -0.00390625 0.515625 0 0.359375 0 L 0.359375 -0.359375 C 0.710938 -0.359375 0.960938 -0.445312 1.109375 -0.625 C 1.253906 -0.800781 1.328125 -1.128906 1.328125 -1.609375 L 1.328125 -7.078125 C 1.328125 -7.609375 1.253906 -7.992188 1.109375 -8.234375 C 0.960938 -8.472656 0.710938 -8.59375 0.359375 -8.59375 L 0.359375 -8.953125 C 0.734375 -8.921875 1.09375 -8.90625 1.4375 -8.90625 C 2.632812 -8.90625 3.632812 -8.988281 4.4375 -9.15625 L 4.4375 -7.90625 C 4.875 -8.769531 5.617188 -9.203125 6.671875 -9.203125 Z M 6.671875 -9.203125 "/></g></g></g><g fill="#000000" fill-opacity="1"><g transform="translate(182.113455, 135.165969)"><g><path d="M 3.984375 -9.203125 C 4.429688 -9.203125 4.851562 -9.148438 5.25 -9.046875 C 5.65625 -8.953125 5.957031 -8.847656 6.15625 -8.734375 C 6.289062 -8.660156 6.394531 -8.625 6.46875 -8.625 C 6.71875 -8.625 6.863281 -8.8125 6.90625 -9.1875 L 7.25 -9.1875 C 7.207031 -8.582031 7.1875 -7.546875 7.1875 -6.078125 L 6.84375 -6.078125 C 6.75 -6.835938 6.53125 -7.476562 6.1875 -8 C 5.851562 -8.519531 5.363281 -8.78125 4.71875 -8.78125 C 4.425781 -8.78125 4.179688 -8.691406 3.984375 -8.515625 C 3.785156 -8.347656 3.6875 -8.117188 3.6875 -7.828125 C 3.6875 -7.441406 3.8125 -7.101562 4.0625 -6.8125 C 4.320312 -6.519531 4.722656 -6.160156 5.265625 -5.734375 C 5.285156 -5.722656 5.453125 -5.585938 5.765625 -5.328125 C 6.410156 -4.804688 6.878906 -4.335938 7.171875 -3.921875 C 7.472656 -3.515625 7.625 -3.015625 7.625 -2.421875 C 7.625 -1.910156 7.46875 -1.453125 7.15625 -1.046875 C 6.851562 -0.640625 6.429688 -0.320312 5.890625 -0.09375 C 5.359375 0.125 4.773438 0.234375 4.140625 0.234375 C 3.421875 0.234375 2.828125 0.09375 2.359375 -0.1875 C 2.171875 -0.289062 2.007812 -0.363281 1.875 -0.40625 C 1.75 -0.457031 1.625 -0.484375 1.5 -0.484375 C 1.28125 -0.484375 1.117188 -0.28125 1.015625 0.125 L 0.671875 0.125 C 0.722656 -0.53125 0.75 -1.679688 0.75 -3.328125 L 1.09375 -3.328125 C 1.195312 -2.390625 1.445312 -1.628906 1.84375 -1.046875 C 2.25 -0.472656 2.753906 -0.1875 3.359375 -0.1875 C 3.648438 -0.1875 3.890625 -0.265625 4.078125 -0.421875 C 4.273438 -0.585938 4.375 -0.828125 4.375 -1.140625 C 4.375 -1.460938 4.304688 -1.75 4.171875 -2 C 4.035156 -2.25 3.875 -2.472656 3.6875 -2.671875 C 3.5 -2.878906 3.191406 -3.175781 2.765625 -3.5625 C 2.273438 -4.007812 1.90625 -4.363281 1.65625 -4.625 C 1.40625 -4.894531 1.191406 -5.203125 1.015625 -5.546875 C 0.835938 -5.898438 0.75 -6.289062 0.75 -6.71875 C 0.75 -7.207031 0.894531 -7.640625 1.1875 -8.015625 C 1.488281 -8.398438 1.882812 -8.691406 2.375 -8.890625 C 2.875 -9.097656 3.410156 -9.203125 3.984375 -9.203125 Z M 3.984375 -9.203125 "/></g></g></g><g fill="#000000" fill-opacity="1"><g transform="translate(190.257976, 135.165969)"><g/></g></g><g fill="#000000" fill-opacity="1"><g transform="translate(194.105921, 135.165969)"><g><path d="M 15.984375 -9.96875 C 15.984375 -9.101562 15.703125 -8.410156 15.140625 -7.890625 C 14.585938 -7.367188 13.765625 -6.976562 12.671875 -6.71875 C 13.023438 -6.488281 13.304688 -6.132812 13.515625 -5.65625 C 13.734375 -5.175781 13.84375 -4.644531 13.84375 -4.0625 C 13.84375 -3.195312 13.566406 -2.4375 13.015625 -1.78125 C 12.472656 -1.132812 11.710938 -0.632812 10.734375 -0.28125 C 9.765625 0.0625 8.660156 0.234375 7.421875 0.234375 C 5.984375 0.234375 4.75 0.0625 3.71875 -0.28125 C 2.6875 -0.625 1.898438 -1.117188 1.359375 -1.765625 C 0.828125 -2.410156 0.5625 -3.175781 0.5625 -4.0625 C 0.5625 -4.851562 0.78125 -5.519531 1.21875 -6.0625 C 1.65625 -6.613281 2.15625 -7.03125 2.71875 -7.3125 C 3.28125 -7.59375 3.800781 -7.789062 4.28125 -7.90625 C 3.644531 -8.132812 3.132812 -8.410156 2.75 -8.734375 C 2.375 -9.066406 2.1875 -9.503906 2.1875 -10.046875 C 2.1875 -10.585938 2.378906 -11.023438 2.765625 -11.359375 C 3.148438 -11.703125 3.628906 -11.953125 4.203125 -12.109375 C 4.785156 -12.265625 5.375 -12.34375 5.96875 -12.34375 C 6.394531 -12.34375 6.738281 -12.320312 7 -12.28125 C 7.269531 -12.238281 7.523438 -12.179688 7.765625 -12.109375 C 8.128906 -11.992188 8.4375 -11.804688 8.6875 -11.546875 C 8.945312 -11.296875 9.078125 -10.96875 9.078125 -10.5625 C 9.078125 -10.175781 8.925781 -9.859375 8.625 -9.609375 C 8.320312 -9.367188 7.953125 -9.25 7.515625 -9.25 C 7.078125 -9.25 6.71875 -9.351562 6.4375 -9.5625 C 6.164062 -9.769531 6.03125 -10.070312 6.03125 -10.46875 C 6.03125 -10.789062 6.140625 -11.085938 6.359375 -11.359375 C 6.585938 -11.628906 6.882812 -11.804688 7.25 -11.890625 C 7 -11.984375 6.660156 -12.03125 6.234375 -12.03125 C 5.578125 -12.03125 5.035156 -11.828125 4.609375 -11.421875 C 4.179688 -11.015625 3.96875 -10.421875 3.96875 -9.640625 C 3.96875 -9.035156 4.144531 -8.492188 4.5 -8.015625 C 4.882812 -8.117188 5.1875 -8.171875 5.40625 -8.171875 C 5.601562 -8.171875 5.753906 -8.125 5.859375 -8.03125 C 5.960938 -7.9375 6.015625 -7.816406 6.015625 -7.671875 C 6.015625 -7.554688 5.96875 -7.460938 5.875 -7.390625 C 5.78125 -7.316406 5.664062 -7.28125 5.53125 -7.28125 C 5.238281 -7.28125 4.90625 -7.441406 4.53125 -7.765625 C 4.019531 -7.410156 3.628906 -7.015625 3.359375 -6.578125 C 3.097656 -6.148438 2.96875 -5.625 2.96875 -5 C 2.96875 -3.925781 3.410156 -3.140625 4.296875 -2.640625 C 5.191406 -2.148438 6.515625 -1.90625 8.265625 -1.90625 C 9.046875 -1.90625 9.8125 -2.015625 10.5625 -2.234375 C 11.320312 -2.453125 11.945312 -2.78125 12.4375 -3.21875 C 12.925781 -3.65625 13.171875 -4.179688 13.171875 -4.796875 C 13.171875 -5.148438 13.125 -5.484375 13.03125 -5.796875 C 12.9375 -6.117188 12.722656 -6.398438 12.390625 -6.640625 L 11.234375 -6.4375 L 10 -6.234375 C 8.695312 -6.003906 7.765625 -5.757812 7.203125 -5.5 C 6.640625 -5.25 6.359375 -4.898438 6.359375 -4.453125 C 6.359375 -4.046875 6.5625 -3.710938 6.96875 -3.453125 C 7.382812 -3.191406 7.863281 -3.0625 8.40625 -3.0625 C 8.53125 -3.0625 8.6875 -3.070312 8.875 -3.09375 C 8.257812 -3.3125 7.953125 -3.742188 7.953125 -4.390625 C 7.953125 -4.796875 8.109375 -5.113281 8.421875 -5.34375 C 8.734375 -5.570312 9.140625 -5.6875 9.640625 -5.6875 C 10.140625 -5.6875 10.53125 -5.566406 10.8125 -5.328125 C 11.09375 -5.085938 11.234375 -4.757812 11.234375 -4.34375 C 11.234375 -3.789062 10.992188 -3.382812 10.515625 -3.125 C 10.046875 -2.863281 9.382812 -2.734375 8.53125 -2.734375 C 7.675781 -2.734375 6.988281 -2.9375 6.46875 -3.34375 C 5.945312 -3.75 5.6875 -4.328125 5.6875 -5.078125 C 5.6875 -6.117188 6.097656 -6.921875 6.921875 -7.484375 C 7.753906 -8.054688 8.953125 -8.457031 10.515625 -8.6875 C 10.835938 -8.726562 11.070312 -8.769531 11.21875 -8.8125 L 12.015625 -8.921875 C 13.140625 -9.109375 13.972656 -9.320312 14.515625 -9.5625 C 15.066406 -9.8125 15.34375 -10.179688 15.34375 -10.671875 C 15.34375 -11.097656 15.144531 -11.445312 14.75 -11.71875 C 14.363281 -11.988281 13.925781 -12.125 13.4375 -12.125 C 13.3125 -12.125 13.15625 -12.109375 12.96875 -12.078125 C 13.3125 -11.953125 13.570312 -11.769531 13.75 -11.53125 C 13.9375 -11.300781 14.03125 -11.054688 14.03125 -10.796875 C 14.03125 -10.378906 13.878906 -10.0625 13.578125 -9.84375 C 13.285156 -9.625 12.890625 -9.515625 12.390625 -9.515625 C 11.890625 -9.515625 11.488281 -9.632812 11.1875 -9.875 C 10.894531 -10.113281 10.75 -10.4375 10.75 -10.84375 C 10.75 -11.332031 10.941406 -11.722656 11.328125 -12.015625 C 11.710938 -12.316406 12.300781 -12.46875 13.09375 -12.46875 C 13.976562 -12.46875 14.679688 -12.242188 15.203125 -11.796875 C 15.722656 -11.359375 15.984375 -10.75 15.984375 -9.96875 Z M 15.984375 -9.96875 "/></g></g></g><g fill="#000000" fill-opacity="1"><g transform="translate(210.284144, 135.165969)"><g/></g></g><g fill="#000000" fill-opacity="1"><g transform="translate(214.132089, 135.165969)"><g/></g></g><g fill="#000000" fill-opacity="1"><g transform="translate(217.975485, 135.165969)"><g><path d="M 5.21875 -12.46875 C 5.875 -12.46875 6.40625 -12.40625 6.8125 -12.28125 C 7.21875 -12.164062 7.617188 -12 8.015625 -11.78125 C 8.140625 -11.707031 8.25 -11.644531 8.34375 -11.59375 C 8.445312 -11.550781 8.53125 -11.53125 8.59375 -11.53125 C 8.695312 -11.53125 8.773438 -11.585938 8.828125 -11.703125 C 8.890625 -11.828125 8.941406 -12.023438 8.984375 -12.296875 L 9.375 -12.296875 C 9.3125 -11.460938 9.28125 -10.054688 9.28125 -8.078125 L 8.890625 -8.078125 C 8.847656 -8.734375 8.695312 -9.359375 8.4375 -9.953125 C 8.1875 -10.554688 7.84375 -11.046875 7.40625 -11.421875 C 6.96875 -11.804688 6.460938 -12 5.890625 -12 C 5.359375 -12 4.929688 -11.859375 4.609375 -11.578125 C 4.285156 -11.296875 4.125 -10.898438 4.125 -10.390625 C 4.125 -10.003906 4.207031 -9.664062 4.375 -9.375 C 4.550781 -9.082031 4.804688 -8.800781 5.140625 -8.53125 C 5.472656 -8.257812 6.019531 -7.863281 6.78125 -7.34375 C 6.851562 -7.300781 6.921875 -7.253906 6.984375 -7.203125 C 7.046875 -7.160156 7.109375 -7.117188 7.171875 -7.078125 C 7.796875 -6.640625 8.296875 -6.25 8.671875 -5.90625 C 9.054688 -5.570312 9.367188 -5.179688 9.609375 -4.734375 C 9.847656 -4.285156 9.96875 -3.765625 9.96875 -3.171875 C 9.96875 -2.421875 9.753906 -1.789062 9.328125 -1.28125 C 8.910156 -0.769531 8.34375 -0.390625 7.625 -0.140625 C 6.914062 0.109375 6.128906 0.234375 5.265625 0.234375 C 4.566406 0.234375 3.984375 0.175781 3.515625 0.0625 C 3.046875 -0.0507812 2.609375 -0.203125 2.203125 -0.390625 C 1.953125 -0.554688 1.757812 -0.640625 1.625 -0.640625 C 1.519531 -0.640625 1.4375 -0.578125 1.375 -0.453125 C 1.320312 -0.335938 1.28125 -0.144531 1.25 0.125 L 0.84375 0.125 C 0.894531 -0.65625 0.921875 -2.328125 0.921875 -4.890625 L 1.3125 -4.890625 C 1.394531 -3.515625 1.679688 -2.398438 2.171875 -1.546875 C 2.671875 -0.703125 3.429688 -0.28125 4.453125 -0.28125 C 5.085938 -0.28125 5.59375 -0.425781 5.96875 -0.71875 C 6.34375 -1.019531 6.53125 -1.4375 6.53125 -1.96875 C 6.53125 -2.625 6.320312 -3.179688 5.90625 -3.640625 C 5.5 -4.109375 4.863281 -4.632812 4 -5.21875 C 3.3125 -5.675781 2.757812 -6.078125 2.34375 -6.421875 C 1.925781 -6.765625 1.585938 -7.164062 1.328125 -7.625 C 1.066406 -8.082031 0.9375 -8.609375 0.9375 -9.203125 C 0.9375 -9.929688 1.128906 -10.539062 1.515625 -11.03125 C 1.910156 -11.519531 2.429688 -11.878906 3.078125 -12.109375 C 3.734375 -12.347656 4.445312 -12.46875 5.21875 -12.46875 Z M 5.21875 -12.46875 "/></g></g></g><g fill="#000000" fill-opacity="1"><g transform="translate(228.553014, 135.165969)"><g><path d="M 9.46875 -1.875 C 9.46875 -1.351562 9.535156 -0.96875 9.671875 -0.71875 C 9.816406 -0.476562 10.066406 -0.359375 10.421875 -0.359375 L 10.421875 0 C 10.066406 -0.03125 9.710938 -0.046875 9.359375 -0.046875 C 8.160156 -0.046875 7.160156 0.03125 6.359375 0.1875 L 6.359375 -1.046875 C 5.835938 -0.191406 4.921875 0.234375 3.609375 0.234375 C 2.691406 0.234375 2.039062 0.00390625 1.65625 -0.453125 C 1.488281 -0.660156 1.363281 -0.9375 1.28125 -1.28125 C 1.195312 -1.632812 1.15625 -2.097656 1.15625 -2.671875 L 1.15625 -7.078125 C 1.15625 -7.609375 1.082031 -7.992188 0.9375 -8.234375 C 0.789062 -8.472656 0.539062 -8.59375 0.1875 -8.59375 L 0.1875 -8.953125 C 0.539062 -8.921875 0.898438 -8.90625 1.265625 -8.90625 C 2.460938 -8.90625 3.460938 -8.988281 4.265625 -9.15625 L 4.265625 -1.75 C 4.265625 -1.375 4.328125 -1.097656 4.453125 -0.921875 C 4.585938 -0.742188 4.804688 -0.65625 5.109375 -0.65625 C 5.441406 -0.65625 5.734375 -0.769531 5.984375 -1 C 6.234375 -1.238281 6.359375 -1.539062 6.359375 -1.90625 L 6.359375 -7.078125 C 6.359375 -7.609375 6.285156 -7.992188 6.140625 -8.234375 C 5.992188 -8.472656 5.742188 -8.59375 5.390625 -8.59375 L 5.390625 -8.953125 C 5.742188 -8.921875 6.097656 -8.90625 6.453125 -8.90625 C 7.648438 -8.90625 8.65625 -8.988281 9.46875 -9.15625 Z M 9.46875 -1.875 "/></g></g></g><g fill="#000000" fill-opacity="1"><g transform="translate(239.285841, 135.165969)"><g><path d="M 7.015625 -9.203125 C 7.910156 -9.203125 8.632812 -8.832031 9.1875 -8.09375 C 9.738281 -7.363281 10.015625 -6.289062 10.015625 -4.875 C 10.015625 -3.039062 9.644531 -1.726562 8.90625 -0.9375 C 8.164062 -0.15625 7.191406 0.234375 5.984375 0.234375 C 5.316406 0.234375 4.785156 0.125 4.390625 -0.09375 L 4.390625 1.34375 C 4.390625 1.875 4.507812 2.242188 4.75 2.453125 C 5 2.660156 5.375 2.765625 5.875 2.765625 L 5.875 3.125 L 5.375 3.109375 C 3.988281 3.078125 3.09375 3.0625 2.6875 3.0625 C 2.34375 3.0625 1.550781 3.082031 0.3125 3.125 L 0.3125 2.765625 C 0.664062 2.765625 0.914062 2.675781 1.0625 2.5 C 1.207031 2.320312 1.28125 1.992188 1.28125 1.515625 L 1.28125 -7.0625 C 1.28125 -7.59375 1.207031 -7.976562 1.0625 -8.21875 C 0.914062 -8.457031 0.664062 -8.578125 0.3125 -8.578125 L 0.3125 -8.9375 C 0.664062 -8.90625 1.019531 -8.890625 1.375 -8.890625 C 2.570312 -8.890625 3.578125 -8.972656 4.390625 -9.140625 L 4.390625 -7.90625 C 4.910156 -8.769531 5.785156 -9.203125 7.015625 -9.203125 Z M 4.984375 -0.28125 C 5.617188 -0.28125 6.078125 -0.617188 6.359375 -1.296875 C 6.640625 -1.984375 6.78125 -3.039062 6.78125 -4.46875 C 6.78125 -5.882812 6.675781 -6.878906 6.46875 -7.453125 C 6.257812 -8.023438 5.976562 -8.3125 5.625 -8.3125 C 5.289062 -8.3125 5 -8.191406 4.75 -7.953125 C 4.507812 -7.710938 4.390625 -7.414062 4.390625 -7.0625 L 4.390625 -0.421875 C 4.535156 -0.328125 4.734375 -0.28125 4.984375 -0.28125 Z M 4.984375 -0.28125 "/></g></g></g><g fill="#000000" fill-opacity="1"><g transform="translate(249.846109, 135.165969)"><g><path d="M 7.015625 -9.203125 C 7.910156 -9.203125 8.632812 -8.832031 9.1875 -8.09375 C 9.738281 -7.363281 10.015625 -6.289062 10.015625 -4.875 C 10.015625 -3.039062 9.644531 -1.726562 8.90625 -0.9375 C 8.164062 -0.15625 7.191406 0.234375 5.984375 0.234375 C 5.316406 0.234375 4.785156 0.125 4.390625 -0.09375 L 4.390625 1.34375 C 4.390625 1.875 4.507812 2.242188 4.75 2.453125 C 5 2.660156 5.375 2.765625 5.875 2.765625 L 5.875 3.125 L 5.375 3.109375 C 3.988281 3.078125 3.09375 3.0625 2.6875 3.0625 C 2.34375 3.0625 1.550781 3.082031 0.3125 3.125 L 0.3125 2.765625 C 0.664062 2.765625 0.914062 2.675781 1.0625 2.5 C 1.207031 2.320312 1.28125 1.992188 1.28125 1.515625 L 1.28125 -7.0625 C 1.28125 -7.59375 1.207031 -7.976562 1.0625 -8.21875 C 0.914062 -8.457031 0.664062 -8.578125 0.3125 -8.578125 L 0.3125 -8.9375 C 0.664062 -8.90625 1.019531 -8.890625 1.375 -8.890625 C 2.570312 -8.890625 3.578125 -8.972656 4.390625 -9.140625 L 4.390625 -7.90625 C 4.910156 -8.769531 5.785156 -9.203125 7.015625 -9.203125 Z M 4.984375 -0.28125 C 5.617188 -0.28125 6.078125 -0.617188 6.359375 -1.296875 C 6.640625 -1.984375 6.78125 -3.039062 6.78125 -4.46875 C 6.78125 -5.882812 6.675781 -6.878906 6.46875 -7.453125 C 6.257812 -8.023438 5.976562 -8.3125 5.625 -8.3125 C 5.289062 -8.3125 5 -8.191406 4.75 -7.953125 C 4.507812 -7.710938 4.390625 -7.414062 4.390625 -7.0625 L 4.390625 -0.421875 C 4.535156 -0.328125 4.734375 -0.28125 4.984375 -0.28125 Z M 4.984375 -0.28125 "/></g></g></g><g fill="#000000" fill-opacity="1"><g transform="translate(260.406377, 135.165969)"><g><path d="M 4.390625 -1.609375 C 4.390625 -1.128906 4.457031 -0.800781 4.59375 -0.625 C 4.738281 -0.445312 4.992188 -0.359375 5.359375 -0.359375 L 5.359375 0 C 4.109375 -0.0390625 3.289062 -0.0625 2.90625 -0.0625 C 2.507812 -0.0625 1.644531 -0.0390625 0.3125 0 L 0.3125 -0.359375 C 0.664062 -0.359375 0.914062 -0.445312 1.0625 -0.625 C 1.207031 -0.800781 1.28125 -1.128906 1.28125 -1.609375 L 1.28125 -11.4375 C 1.28125 -11.957031 1.207031 -12.335938 1.0625 -12.578125 C 0.914062 -12.828125 0.664062 -12.953125 0.3125 -12.953125 L 0.3125 -13.3125 C 0.664062 -13.28125 1.019531 -13.265625 1.375 -13.265625 C 2.570312 -13.265625 3.578125 -13.34375 4.390625 -13.5 Z M 4.390625 -1.609375 "/></g></g></g><g fill="#000000" fill-opacity="1"><g transform="translate(266.066132, 135.165969)"><g><path d="M 2.78125 -13.5 C 3.375 -13.5 3.832031 -13.367188 4.15625 -13.109375 C 4.488281 -12.859375 4.65625 -12.492188 4.65625 -12.015625 C 4.65625 -11.535156 4.488281 -11.164062 4.15625 -10.90625 C 3.832031 -10.65625 3.375 -10.53125 2.78125 -10.53125 C 2.164062 -10.53125 1.695312 -10.65625 1.375 -10.90625 C 1.050781 -11.164062 0.890625 -11.535156 0.890625 -12.015625 C 0.890625 -12.492188 1.050781 -12.859375 1.375 -13.109375 C 1.695312 -13.367188 2.164062 -13.5 2.78125 -13.5 Z M 4.4375 -1.609375 C 4.4375 -1.128906 4.507812 -0.800781 4.65625 -0.625 C 4.800781 -0.445312 5.050781 -0.359375 5.40625 -0.359375 L 5.40625 0 C 4.164062 -0.0390625 3.347656 -0.0625 2.953125 -0.0625 C 2.554688 -0.0625 1.691406 -0.0390625 0.359375 0 L 0.359375 -0.359375 C 0.710938 -0.359375 0.960938 -0.445312 1.109375 -0.625 C 1.253906 -0.800781 1.328125 -1.128906 1.328125 -1.609375 L 1.328125 -7.078125 C 1.328125 -7.609375 1.253906 -7.992188 1.109375 -8.234375 C 0.960938 -8.472656 0.710938 -8.59375 0.359375 -8.59375 L 0.359375 -8.953125 C 0.734375 -8.921875 1.09375 -8.90625 1.4375 -8.90625 C 2.632812 -8.90625 3.632812 -8.988281 4.4375 -9.15625 Z M 4.4375 -1.609375 "/></g></g></g><g fill="#000000" fill-opacity="1"><g transform="translate(271.760393, 135.165969)"><g><path d="M 5.75 -1.640625 C 6.59375 -1.640625 7.289062 -2.023438 7.84375 -2.796875 L 8.125 -2.6875 C 7.875 -1.882812 7.445312 -1.195312 6.84375 -0.625 C 6.238281 -0.0507812 5.46875 0.234375 4.53125 0.234375 C 3.3125 0.234375 2.335938 -0.132812 1.609375 -0.875 C 0.890625 -1.625 0.53125 -2.820312 0.53125 -4.46875 C 0.53125 -6.050781 0.9375 -7.234375 1.75 -8.015625 C 2.5625 -8.804688 3.632812 -9.203125 4.96875 -9.203125 C 7.144531 -9.203125 8.234375 -7.910156 8.234375 -5.328125 L 3.78125 -5.328125 C 3.769531 -5.191406 3.765625 -4.988281 3.765625 -4.71875 C 3.765625 -3.613281 3.957031 -2.820312 4.34375 -2.34375 C 4.726562 -1.875 5.195312 -1.640625 5.75 -1.640625 Z M 4.859375 -8.8125 C 4.210938 -8.8125 3.832031 -7.757812 3.71875 -5.65625 L 5.71875 -5.65625 C 5.726562 -6.582031 5.660156 -7.335938 5.515625 -7.921875 C 5.367188 -8.515625 5.148438 -8.8125 4.859375 -8.8125 Z M 4.859375 -8.8125 "/></g></g></g><g fill="#000000" fill-opacity="1"><g transform="translate(280.439832, 135.165969)"><g><path d="M 6.671875 -9.203125 C 7.234375 -9.203125 7.632812 -9.03125 7.875 -8.6875 C 8.125 -8.34375 8.25 -7.929688 8.25 -7.453125 C 8.25 -6.941406 8.101562 -6.53125 7.8125 -6.21875 C 7.519531 -5.914062 7.140625 -5.765625 6.671875 -5.765625 C 6.171875 -5.765625 5.785156 -5.875 5.515625 -6.09375 C 5.253906 -6.320312 5.125 -6.628906 5.125 -7.015625 C 5.125 -7.691406 5.421875 -8.222656 6.015625 -8.609375 C 5.804688 -8.609375 5.617188 -8.570312 5.453125 -8.5 C 5.171875 -8.375 4.929688 -8.164062 4.734375 -7.875 C 4.535156 -7.59375 4.4375 -7.285156 4.4375 -6.953125 L 4.4375 -1.78125 C 4.4375 -1.238281 4.546875 -0.863281 4.765625 -0.65625 C 4.992188 -0.457031 5.378906 -0.359375 5.921875 -0.359375 L 5.921875 0 C 5.773438 0 5.648438 -0.00390625 5.546875 -0.015625 C 4.335938 -0.046875 3.53125 -0.0625 3.125 -0.0625 C 2.769531 -0.0625 1.96875 -0.046875 0.71875 -0.015625 C 0.632812 -0.00390625 0.515625 0 0.359375 0 L 0.359375 -0.359375 C 0.710938 -0.359375 0.960938 -0.445312 1.109375 -0.625 C 1.253906 -0.800781 1.328125 -1.128906 1.328125 -1.609375 L 1.328125 -7.078125 C 1.328125 -7.609375 1.253906 -7.992188 1.109375 -8.234375 C 0.960938 -8.472656 0.710938 -8.59375 0.359375 -8.59375 L 0.359375 -8.953125 C 0.734375 -8.921875 1.09375 -8.90625 1.4375 -8.90625 C 2.632812 -8.90625 3.632812 -8.988281 4.4375 -9.15625 L 4.4375 -7.90625 C 4.875 -8.769531 5.617188 -9.203125 6.671875 -9.203125 Z M 6.671875 -9.203125 "/></g></g></g><g fill="#000000" fill-opacity="1"><g transform="translate(288.73965, 135.165969)"><g><path d="M 3.984375 -9.203125 C 4.429688 -9.203125 4.851562 -9.148438 5.25 -9.046875 C 5.65625 -8.953125 5.957031 -8.847656 6.15625 -8.734375 C 6.289062 -8.660156 6.394531 -8.625 6.46875 -8.625 C 6.71875 -8.625 6.863281 -8.8125 6.90625 -9.1875 L 7.25 -9.1875 C 7.207031 -8.582031 7.1875 -7.546875 7.1875 -6.078125 L 6.84375 -6.078125 C 6.75 -6.835938 6.53125 -7.476562 6.1875 -8 C 5.851562 -8.519531 5.363281 -8.78125 4.71875 -8.78125 C 4.425781 -8.78125 4.179688 -8.691406 3.984375 -8.515625 C 3.785156 -8.347656 3.6875 -8.117188 3.6875 -7.828125 C 3.6875 -7.441406 3.8125 -7.101562 4.0625 -6.8125 C 4.320312 -6.519531 4.722656 -6.160156 5.265625 -5.734375 C 5.285156 -5.722656 5.453125 -5.585938 5.765625 -5.328125 C 6.410156 -4.804688 6.878906 -4.335938 7.171875 -3.921875 C 7.472656 -3.515625 7.625 -3.015625 7.625 -2.421875 C 7.625 -1.910156 7.46875 -1.453125 7.15625 -1.046875 C 6.851562 -0.640625 6.429688 -0.320312 5.890625 -0.09375 C 5.359375 0.125 4.773438 0.234375 4.140625 0.234375 C 3.421875 0.234375 2.828125 0.09375 2.359375 -0.1875 C 2.171875 -0.289062 2.007812 -0.363281 1.875 -0.40625 C 1.75 -0.457031 1.625 -0.484375 1.5 -0.484375 C 1.28125 -0.484375 1.117188 -0.28125 1.015625 0.125 L 0.671875 0.125 C 0.722656 -0.53125 0.75 -1.679688 0.75 -3.328125 L 1.09375 -3.328125 C 1.195312 -2.390625 1.445312 -1.628906 1.84375 -1.046875 C 2.25 -0.472656 2.753906 -0.1875 3.359375 -0.1875 C 3.648438 -0.1875 3.890625 -0.265625 4.078125 -0.421875 C 4.273438 -0.585938 4.375 -0.828125 4.375 -1.140625 C 4.375 -1.460938 4.304688 -1.75 4.171875 -2 C 4.035156 -2.25 3.875 -2.472656 3.6875 -2.671875 C 3.5 -2.878906 3.191406 -3.175781 2.765625 -3.5625 C 2.273438 -4.007812 1.90625 -4.363281 1.65625 -4.625 C 1.40625 -4.894531 1.191406 -5.203125 1.015625 -5.546875 C 0.835938 -5.898438 0.75 -6.289062 0.75 -6.71875 C 0.75 -7.207031 0.894531 -7.640625 1.1875 -8.015625 C 1.488281 -8.398438 1.882812 -8.691406 2.375 -8.890625 C 2.875 -9.097656 3.410156 -9.203125 3.984375 -9.203125 Z M 3.984375 -9.203125 "/></g></g></g></svg>