<svg xmlns="http://www.w3.org/2000/svg" xmlns:xlink="http://www.w3.org/1999/xlink" zoomAndPan="magnify" preserveAspectRatio="xMidYMid meet" version="1.0" viewBox="19.64 6.44 54.45 27.98"><defs><g/></defs><g fill="#ffffff" fill-opacity="1"><g transform="translate(21.937498, 26.146335)"><g><path d="M 7.625 0 C 8.4375 0 9.210938 -0.132812 9.953125 -0.40625 C 10.691406 -0.675781 11.363281 -1.050781 11.96875 -1.53125 C 12.570312 -2.007812 13.09375 -2.570312 13.53125 -3.21875 C 13.96875 -3.863281 14.28125 -4.554688 14.46875 -5.296875 L 14.46875 0 Z M 9.0625 -19.703125 C 8.570312 -19.703125 8.160156 -19.507812 7.828125 -19.125 C 7.503906 -18.75 7.34375 -18.320312 7.34375 -17.84375 L 7.34375 0 L 0.703125 0 C 1.171875 0 1.566406 -0.191406 1.890625 -0.578125 C 2.222656 -0.960938 2.390625 -1.390625 2.390625 -1.859375 L 2.390625 -17.84375 C 2.390625 -18.320312 2.222656 -18.75 1.890625 -19.125 C 1.566406 -19.507812 1.171875 -19.703125 0.703125 -19.703125 Z M 9.0625 -19.703125 "/></g></g></g><g fill="#ffffff" fill-opacity="1"><g transform="translate(37.115818, 26.146335)"><g><path d="M 12.5625 -9.9375 C 13.289062 -9.90625 13.976562 -9.75 14.625 -9.46875 C 15.269531 -9.195312 15.832031 -8.835938 16.3125 -8.390625 C 16.789062 -7.941406 17.171875 -7.425781 17.453125 -6.84375 C 17.734375 -6.257812 17.875 -5.628906 17.875 -4.953125 C 17.875 -4.273438 17.726562 -3.632812 17.4375 -3.03125 C 17.144531 -2.4375 16.742188 -1.910156 16.234375 -1.453125 C 15.734375 -1.003906 15.140625 -0.648438 14.453125 -0.390625 C 13.773438 -0.128906 13.050781 0 12.28125 0 L 8.953125 0 C 9.398438 0 9.820312 -0.132812 10.21875 -0.40625 C 10.613281 -0.675781 10.960938 -1.035156 11.265625 -1.484375 C 11.566406 -1.941406 11.800781 -2.46875 11.96875 -3.0625 C 12.132812 -3.664062 12.21875 -4.304688 12.21875 -4.984375 C 12.21875 -5.640625 12.132812 -6.265625 11.96875 -6.859375 C 11.800781 -7.453125 11.566406 -7.96875 11.265625 -8.40625 C 10.960938 -8.84375 10.613281 -9.191406 10.21875 -9.453125 C 9.820312 -9.722656 9.398438 -9.859375 8.953125 -9.859375 L 8.390625 -9.859375 C 8.785156 -9.859375 9.15625 -9.988281 9.5 -10.25 C 9.851562 -10.507812 10.15625 -10.859375 10.40625 -11.296875 C 10.65625 -11.742188 10.851562 -12.257812 11 -12.84375 C 11.15625 -13.4375 11.234375 -14.0625 11.234375 -14.71875 C 11.234375 -15.394531 11.15625 -16.035156 11 -16.640625 C 10.851562 -17.242188 10.65625 -17.769531 10.40625 -18.21875 C 10.15625 -18.664062 9.851562 -19.023438 9.5 -19.296875 C 9.15625 -19.566406 8.785156 -19.703125 8.390625 -19.703125 L 11.296875 -19.703125 C 11.960938 -19.703125 12.597656 -19.570312 13.203125 -19.3125 C 13.804688 -19.050781 14.332031 -18.691406 14.78125 -18.234375 C 15.226562 -17.785156 15.578125 -17.257812 15.828125 -16.65625 C 16.085938 -16.0625 16.21875 -15.414062 16.21875 -14.71875 C 16.21875 -14.15625 16.125 -13.613281 15.9375 -13.09375 C 15.75 -12.582031 15.488281 -12.113281 15.15625 -11.6875 C 14.832031 -11.269531 14.445312 -10.90625 14 -10.59375 C 13.5625 -10.289062 13.082031 -10.070312 12.5625 -9.9375 Z M 7.34375 -19.703125 L 7.34375 0 L 0.703125 0 C 1.171875 0 1.566406 -0.191406 1.890625 -0.578125 C 2.222656 -0.960938 2.390625 -1.390625 2.390625 -1.859375 L 2.390625 -17.84375 C 2.390625 -18.320312 2.222656 -18.75 1.890625 -19.125 C 1.566406 -19.507812 1.171875 -19.703125 0.703125 -19.703125 Z M 7.34375 -19.703125 "/></g></g></g><g fill="#ffffff" fill-opacity="1"><g transform="translate(55.701514, 26.146335)"><g><path d="M 15.375 -5.4375 C 15.425781 -4.6875 15.273438 -3.984375 14.921875 -3.328125 C 14.566406 -2.679688 14.0625 -2.113281 13.40625 -1.625 C 12.75 -1.144531 11.972656 -0.757812 11.078125 -0.46875 C 10.179688 -0.175781 9.25 -0.0195312 8.28125 0 C 8.613281 -0.0390625 8.9375 -0.144531 9.25 -0.3125 C 9.5625 -0.476562 9.835938 -0.6875 10.078125 -0.9375 C 10.328125 -1.195312 10.519531 -1.488281 10.65625 -1.8125 C 10.800781 -2.144531 10.875 -2.488281 10.875 -2.84375 C 10.875 -3.550781 10.625 -4.222656 10.125 -4.859375 C 9.625 -5.503906 8.992188 -6.128906 8.234375 -6.734375 C 7.472656 -7.347656 6.65625 -7.960938 5.78125 -8.578125 C 4.914062 -9.203125 4.101562 -9.851562 3.34375 -10.53125 C 2.582031 -11.207031 1.953125 -11.921875 1.453125 -12.671875 C 0.953125 -13.421875 0.703125 -14.238281 0.703125 -15.125 C 0.703125 -15.96875 0.929688 -16.675781 1.390625 -17.25 C 1.847656 -17.832031 2.425781 -18.304688 3.125 -18.671875 C 3.832031 -19.046875 4.601562 -19.3125 5.4375 -19.46875 C 6.28125 -19.625 7.085938 -19.703125 7.859375 -19.703125 L 8.28125 -19.703125 C 7.625 -19.648438 7.039062 -19.40625 6.53125 -18.96875 C 6.019531 -18.539062 5.738281 -17.929688 5.6875 -17.140625 C 5.632812 -16.410156 5.828125 -15.734375 6.265625 -15.109375 C 6.703125 -14.492188 7.265625 -13.898438 7.953125 -13.328125 C 8.640625 -12.753906 9.398438 -12.1875 10.234375 -11.625 C 11.066406 -11.0625 11.847656 -10.460938 12.578125 -9.828125 C 13.316406 -9.203125 13.945312 -8.53125 14.46875 -7.8125 C 15 -7.101562 15.300781 -6.3125 15.375 -5.4375 Z M 14.109375 -14.390625 C 13.992188 -14.953125 13.789062 -15.523438 13.5 -16.109375 C 13.207031 -16.691406 12.835938 -17.234375 12.390625 -17.734375 C 11.953125 -18.242188 11.445312 -18.671875 10.875 -19.015625 C 10.3125 -19.367188 9.691406 -19.582031 9.015625 -19.65625 C 9.609375 -19.59375 10.171875 -19.519531 10.703125 -19.4375 C 11.242188 -19.351562 11.816406 -19.3125 12.421875 -19.3125 C 12.734375 -19.3125 13.046875 -19.335938 13.359375 -19.390625 C 13.671875 -19.453125 13.921875 -19.554688 14.109375 -19.703125 Z M 5.0625 -1.34375 C 5.125 -1.03125 5.367188 -0.738281 5.796875 -0.46875 C 6.234375 -0.195312 6.84375 -0.0390625 7.625 0 C 6.664062 -0.0390625 5.769531 -0.191406 4.9375 -0.453125 C 4.101562 -0.710938 3.367188 -1.054688 2.734375 -1.484375 C 2.109375 -1.921875 1.613281 -2.425781 1.25 -3 C 0.882812 -3.570312 0.703125 -4.195312 0.703125 -4.875 C 0.703125 -5.28125 0.78125 -5.664062 0.9375 -6.03125 C 1.101562 -6.40625 1.320312 -6.726562 1.59375 -7 C 1.863281 -7.269531 2.179688 -7.484375 2.546875 -7.640625 C 2.910156 -7.804688 3.300781 -7.890625 3.71875 -7.890625 C 4.132812 -7.890625 4.523438 -7.804688 4.890625 -7.640625 C 5.253906 -7.484375 5.570312 -7.269531 5.84375 -7 C 6.113281 -6.726562 6.328125 -6.40625 6.484375 -6.03125 C 6.648438 -5.664062 6.734375 -5.28125 6.734375 -4.875 C 6.734375 -4.457031 6.648438 -4.0625 6.484375 -3.6875 C 6.328125 -3.3125 6.117188 -2.992188 5.859375 -2.734375 C 5.554688 -2.410156 5.335938 -2.164062 5.203125 -2 C 5.078125 -1.832031 5.03125 -1.613281 5.0625 -1.34375 Z M 5.0625 -1.34375 "/></g></g></g><g fill="#ffffff" fill-opacity="1"><g transform="translate(19.516083, 33.643555)"><g><path d="M 1.65625 -2.96875 C 1.550781 -2.957031 1.472656 -2.941406 1.421875 -2.921875 C 1.378906 -2.910156 1.347656 -2.878906 1.328125 -2.828125 C 1.304688 -2.785156 1.296875 -2.707031 1.296875 -2.59375 L 1.296875 -0.375 C 1.296875 -0.289062 1.300781 -0.226562 1.3125 -0.1875 C 1.332031 -0.15625 1.351562 -0.128906 1.375 -0.109375 C 1.40625 -0.0976562 1.453125 -0.09375 1.515625 -0.09375 L 1.671875 -0.09375 C 1.765625 -0.09375 1.867188 -0.144531 1.984375 -0.25 C 2.109375 -0.351562 2.21875 -0.484375 2.3125 -0.640625 C 2.40625 -0.804688 2.46875 -0.984375 2.5 -1.171875 L 2.59375 -1.171875 C 2.59375 -1.066406 2.59375 -0.929688 2.59375 -0.765625 C 2.59375 -0.453125 2.601562 -0.195312 2.625 0 C 2.425781 -0.0078125 2.09375 -0.015625 1.625 -0.015625 C 0.957031 -0.015625 0.457031 -0.0078125 0.125 0 L 0.125 -0.09375 C 0.21875 -0.09375 0.285156 -0.0976562 0.328125 -0.109375 C 0.367188 -0.128906 0.394531 -0.164062 0.40625 -0.21875 C 0.414062 -0.269531 0.421875 -0.347656 0.421875 -0.453125 L 0.421875 -2.59375 C 0.421875 -2.707031 0.410156 -2.785156 0.390625 -2.828125 C 0.378906 -2.878906 0.351562 -2.910156 0.3125 -2.921875 C 0.28125 -2.941406 0.21875 -2.957031 0.125 -2.96875 L 0.125 -3.046875 C 0.28125 -3.046875 0.535156 -3.046875 0.890625 -3.046875 C 1.222656 -3.046875 1.476562 -3.046875 1.65625 -3.046875 Z M 1.65625 -2.96875 "/></g></g></g><g fill="#ffffff" fill-opacity="1"><g transform="translate(22.217613, 33.643555)"><g><path d="M 1.234375 -2.296875 C 1.585938 -2.296875 1.859375 -2.203125 2.046875 -2.015625 C 2.242188 -1.835938 2.34375 -1.535156 2.34375 -1.109375 C 2.34375 -0.691406 2.242188 -0.390625 2.046875 -0.203125 C 1.859375 -0.0234375 1.585938 0.0625 1.234375 0.0625 C 0.890625 0.0625 0.617188 -0.0234375 0.421875 -0.203125 C 0.234375 -0.390625 0.140625 -0.691406 0.140625 -1.109375 C 0.140625 -1.535156 0.234375 -1.835938 0.421875 -2.015625 C 0.617188 -2.203125 0.890625 -2.296875 1.234375 -2.296875 Z M 1.234375 -2.21875 C 1.148438 -2.21875 1.078125 -2.125 1.015625 -1.9375 C 0.960938 -1.757812 0.9375 -1.484375 0.9375 -1.109375 C 0.9375 -0.742188 0.960938 -0.472656 1.015625 -0.296875 C 1.078125 -0.117188 1.148438 -0.03125 1.234375 -0.03125 C 1.328125 -0.03125 1.398438 -0.117188 1.453125 -0.296875 C 1.515625 -0.472656 1.546875 -0.742188 1.546875 -1.109375 C 1.546875 -1.484375 1.515625 -1.757812 1.453125 -1.9375 C 1.398438 -2.125 1.328125 -2.21875 1.234375 -2.21875 Z M 1.234375 -2.21875 "/></g></g></g><g fill="#ffffff" fill-opacity="1"><g transform="translate(24.703364, 33.643555)"><g><path d="M 1.796875 -2.296875 C 2.023438 -2.296875 2.1875 -2.238281 2.28125 -2.125 C 2.320312 -2.070312 2.351562 -2 2.375 -1.90625 C 2.394531 -1.820312 2.40625 -1.707031 2.40625 -1.5625 L 2.40625 -0.40625 C 2.40625 -0.28125 2.421875 -0.195312 2.453125 -0.15625 C 2.492188 -0.113281 2.554688 -0.09375 2.640625 -0.09375 L 2.640625 0 C 2.335938 -0.0078125 2.140625 -0.015625 2.046875 -0.015625 C 1.941406 -0.015625 1.738281 -0.0078125 1.4375 0 L 1.4375 -0.09375 C 1.507812 -0.09375 1.554688 -0.113281 1.578125 -0.15625 C 1.609375 -0.195312 1.625 -0.28125 1.625 -0.40625 L 1.625 -1.796875 C 1.625 -1.890625 1.609375 -1.957031 1.578125 -2 C 1.546875 -2.050781 1.492188 -2.078125 1.421875 -2.078125 C 1.335938 -2.078125 1.265625 -2.046875 1.203125 -1.984375 C 1.140625 -1.921875 1.109375 -1.847656 1.109375 -1.765625 L 1.109375 -0.40625 C 1.109375 -0.28125 1.117188 -0.195312 1.140625 -0.15625 C 1.171875 -0.113281 1.226562 -0.09375 1.3125 -0.09375 L 1.3125 0 C 1.019531 -0.0078125 0.828125 -0.015625 0.734375 -0.015625 C 0.640625 -0.015625 0.425781 -0.0078125 0.09375 0 L 0.09375 -0.09375 C 0.175781 -0.09375 0.234375 -0.113281 0.265625 -0.15625 C 0.304688 -0.195312 0.328125 -0.28125 0.328125 -0.40625 L 0.328125 -1.765625 C 0.328125 -1.898438 0.304688 -1.992188 0.265625 -2.046875 C 0.234375 -2.109375 0.175781 -2.140625 0.09375 -2.140625 L 0.09375 -2.234375 C 0.1875 -2.222656 0.273438 -2.21875 0.359375 -2.21875 C 0.660156 -2.21875 0.910156 -2.238281 1.109375 -2.28125 L 1.109375 -1.96875 C 1.234375 -2.1875 1.460938 -2.296875 1.796875 -2.296875 Z M 1.796875 -2.296875 "/></g></g></g><g fill="#ffffff" fill-opacity="1"><g transform="translate(27.400575, 33.643555)"><g><path d="M 1.4375 -0.40625 C 1.644531 -0.40625 1.816406 -0.503906 1.953125 -0.703125 L 2.03125 -0.671875 C 1.96875 -0.472656 1.859375 -0.300781 1.703125 -0.15625 C 1.554688 -0.0078125 1.363281 0.0625 1.125 0.0625 C 0.820312 0.0625 0.582031 -0.03125 0.40625 -0.21875 C 0.226562 -0.40625 0.140625 -0.703125 0.140625 -1.109375 C 0.140625 -1.503906 0.238281 -1.800781 0.4375 -2 C 0.632812 -2.195312 0.898438 -2.296875 1.234375 -2.296875 C 1.785156 -2.296875 2.0625 -1.972656 2.0625 -1.328125 L 0.9375 -1.328125 C 0.9375 -1.296875 0.9375 -1.242188 0.9375 -1.171875 C 0.9375 -0.898438 0.984375 -0.703125 1.078125 -0.578125 C 1.179688 -0.460938 1.300781 -0.40625 1.4375 -0.40625 Z M 1.21875 -2.203125 C 1.050781 -2.203125 0.953125 -1.941406 0.921875 -1.421875 L 1.421875 -1.421875 C 1.429688 -1.648438 1.414062 -1.835938 1.375 -1.984375 C 1.34375 -2.128906 1.289062 -2.203125 1.21875 -2.203125 Z M 1.21875 -2.203125 "/></g></g></g><g fill="#ffffff" fill-opacity="1"><g transform="translate(29.571292, 33.643555)"><g/></g></g><g fill="#ffffff" fill-opacity="1"><g transform="translate(30.53366, 33.643555)"><g><path d="M 1.703125 -2.296875 C 1.929688 -2.296875 2.113281 -2.203125 2.25 -2.015625 C 2.382812 -1.835938 2.453125 -1.570312 2.453125 -1.21875 C 2.453125 -0.757812 2.359375 -0.429688 2.171875 -0.234375 C 1.992188 -0.0351562 1.753906 0.0625 1.453125 0.0625 C 1.359375 0.0625 1.28125 0.0546875 1.21875 0.046875 C 1.15625 0.046875 1.097656 0.0351562 1.046875 0.015625 C 0.941406 -0.0351562 0.832031 -0.0625 0.71875 -0.0625 C 0.632812 -0.0625 0.550781 -0.046875 0.46875 -0.015625 C 0.394531 0.00390625 0.335938 0.03125 0.296875 0.0625 L 0.234375 0.03125 C 0.253906 -0.03125 0.265625 -0.113281 0.265625 -0.21875 L 0.265625 -2.859375 C 0.265625 -2.984375 0.242188 -3.078125 0.203125 -3.140625 C 0.171875 -3.203125 0.113281 -3.234375 0.03125 -3.234375 L 0.03125 -3.328125 C 0.113281 -3.316406 0.203125 -3.3125 0.296875 -3.3125 C 0.597656 -3.3125 0.847656 -3.332031 1.046875 -3.375 L 1.046875 -1.96875 C 1.179688 -2.1875 1.398438 -2.296875 1.703125 -2.296875 Z M 1.25 -0.03125 C 1.507812 -0.03125 1.640625 -0.390625 1.640625 -1.109375 C 1.640625 -1.460938 1.613281 -1.710938 1.5625 -1.859375 C 1.507812 -2.003906 1.441406 -2.078125 1.359375 -2.078125 C 1.273438 -2.078125 1.203125 -2.046875 1.140625 -1.984375 C 1.078125 -1.921875 1.046875 -1.847656 1.046875 -1.765625 L 1.046875 -0.078125 C 1.109375 -0.046875 1.175781 -0.03125 1.25 -0.03125 Z M 1.25 -0.03125 "/></g></g></g><g fill="#ffffff" fill-opacity="1"><g transform="translate(33.127301, 33.643555)"><g><path d="M 2.359375 -0.46875 C 2.359375 -0.332031 2.375 -0.234375 2.40625 -0.171875 C 2.445312 -0.117188 2.515625 -0.09375 2.609375 -0.09375 L 2.609375 0 C 2.515625 -0.0078125 2.425781 -0.015625 2.34375 -0.015625 C 2.039062 -0.015625 1.789062 0.00390625 1.59375 0.046875 L 1.59375 -0.265625 C 1.457031 -0.046875 1.226562 0.0625 0.90625 0.0625 C 0.675781 0.0625 0.507812 0.00390625 0.40625 -0.109375 C 0.363281 -0.160156 0.332031 -0.226562 0.3125 -0.3125 C 0.289062 -0.40625 0.28125 -0.523438 0.28125 -0.671875 L 0.28125 -1.765625 C 0.28125 -1.898438 0.265625 -1.992188 0.234375 -2.046875 C 0.203125 -2.109375 0.140625 -2.140625 0.046875 -2.140625 L 0.046875 -2.234375 C 0.140625 -2.222656 0.226562 -2.21875 0.3125 -2.21875 C 0.613281 -2.21875 0.863281 -2.238281 1.0625 -2.28125 L 1.0625 -0.4375 C 1.0625 -0.34375 1.078125 -0.269531 1.109375 -0.21875 C 1.148438 -0.175781 1.207031 -0.15625 1.28125 -0.15625 C 1.363281 -0.15625 1.4375 -0.1875 1.5 -0.25 C 1.5625 -0.3125 1.59375 -0.382812 1.59375 -0.46875 L 1.59375 -1.765625 C 1.59375 -1.898438 1.570312 -1.992188 1.53125 -2.046875 C 1.5 -2.109375 1.4375 -2.140625 1.34375 -2.140625 L 1.34375 -2.234375 C 1.4375 -2.222656 1.523438 -2.21875 1.609375 -2.21875 C 1.910156 -2.21875 2.160156 -2.238281 2.359375 -2.28125 Z M 2.359375 -0.46875 "/></g></g></g><g fill="#ffffff" fill-opacity="1"><g transform="translate(35.811567, 33.643555)"><g><path d="M 0.703125 -3.375 C 0.847656 -3.375 0.960938 -3.34375 1.046875 -3.28125 C 1.128906 -3.21875 1.171875 -3.125 1.171875 -3 C 1.171875 -2.882812 1.128906 -2.789062 1.046875 -2.71875 C 0.960938 -2.65625 0.847656 -2.625 0.703125 -2.625 C 0.546875 -2.625 0.425781 -2.65625 0.34375 -2.71875 C 0.269531 -2.789062 0.234375 -2.882812 0.234375 -3 C 0.234375 -3.125 0.269531 -3.21875 0.34375 -3.28125 C 0.425781 -3.34375 0.546875 -3.375 0.703125 -3.375 Z M 1.109375 -0.40625 C 1.109375 -0.28125 1.125 -0.195312 1.15625 -0.15625 C 1.195312 -0.113281 1.257812 -0.09375 1.34375 -0.09375 L 1.34375 0 C 1.039062 -0.0078125 0.835938 -0.015625 0.734375 -0.015625 C 0.640625 -0.015625 0.425781 -0.0078125 0.09375 0 L 0.09375 -0.09375 C 0.175781 -0.09375 0.234375 -0.113281 0.265625 -0.15625 C 0.304688 -0.195312 0.328125 -0.28125 0.328125 -0.40625 L 0.328125 -1.765625 C 0.328125 -1.898438 0.304688 -1.992188 0.265625 -2.046875 C 0.234375 -2.109375 0.175781 -2.140625 0.09375 -2.140625 L 0.09375 -2.234375 C 0.1875 -2.222656 0.273438 -2.21875 0.359375 -2.21875 C 0.660156 -2.21875 0.910156 -2.238281 1.109375 -2.28125 Z M 1.109375 -0.40625 "/></g></g></g><g fill="#ffffff" fill-opacity="1"><g transform="translate(37.235693, 33.643555)"><g><path d="M 1.09375 -0.40625 C 1.09375 -0.28125 1.109375 -0.195312 1.140625 -0.15625 C 1.179688 -0.113281 1.25 -0.09375 1.34375 -0.09375 L 1.34375 0 C 1.03125 -0.0078125 0.820312 -0.015625 0.71875 -0.015625 C 0.625 -0.015625 0.410156 -0.0078125 0.078125 0 L 0.078125 -0.09375 C 0.171875 -0.09375 0.234375 -0.113281 0.265625 -0.15625 C 0.296875 -0.195312 0.3125 -0.28125 0.3125 -0.40625 L 0.3125 -2.859375 C 0.3125 -2.984375 0.296875 -3.078125 0.265625 -3.140625 C 0.234375 -3.203125 0.171875 -3.234375 0.078125 -3.234375 L 0.078125 -3.328125 C 0.171875 -3.316406 0.257812 -3.3125 0.34375 -3.3125 C 0.644531 -3.3125 0.894531 -3.332031 1.09375 -3.375 Z M 1.09375 -0.40625 "/></g></g></g><g fill="#ffffff" fill-opacity="1"><g transform="translate(38.651193, 33.643555)"><g><path d="M 2.3125 -0.46875 C 2.3125 -0.34375 2.328125 -0.25 2.359375 -0.1875 C 2.398438 -0.125 2.46875 -0.09375 2.5625 -0.09375 L 2.5625 0 C 2.46875 -0.0078125 2.378906 -0.015625 2.296875 -0.015625 C 1.992188 -0.015625 1.742188 0.00390625 1.546875 0.046875 L 1.546875 -0.265625 C 1.484375 -0.148438 1.410156 -0.0664062 1.328125 -0.015625 C 1.242188 0.0351562 1.140625 0.0625 1.015625 0.0625 C 0.742188 0.0625 0.53125 -0.0351562 0.375 -0.234375 C 0.21875 -0.429688 0.140625 -0.734375 0.140625 -1.140625 C 0.140625 -1.515625 0.222656 -1.800781 0.390625 -2 C 0.554688 -2.195312 0.789062 -2.296875 1.09375 -2.296875 C 1.269531 -2.296875 1.421875 -2.257812 1.546875 -2.1875 L 1.546875 -2.859375 C 1.546875 -2.984375 1.523438 -3.078125 1.484375 -3.140625 C 1.453125 -3.203125 1.390625 -3.234375 1.296875 -3.234375 L 1.296875 -3.328125 C 1.390625 -3.316406 1.476562 -3.3125 1.5625 -3.3125 C 1.863281 -3.3125 2.113281 -3.332031 2.3125 -3.375 Z M 1.234375 -0.15625 C 1.316406 -0.15625 1.390625 -0.1875 1.453125 -0.25 C 1.515625 -0.3125 1.546875 -0.382812 1.546875 -0.46875 L 1.546875 -2.09375 C 1.472656 -2.132812 1.40625 -2.15625 1.34375 -2.15625 C 1.207031 -2.15625 1.101562 -2.066406 1.03125 -1.890625 C 0.96875 -1.722656 0.9375 -1.46875 0.9375 -1.125 C 0.9375 -0.769531 0.960938 -0.519531 1.015625 -0.375 C 1.066406 -0.226562 1.140625 -0.15625 1.234375 -0.15625 Z M 1.234375 -0.15625 "/></g></g></g><g fill="#ffffff" fill-opacity="1"><g transform="translate(41.279355, 33.643555)"><g><path d="M 1.4375 -0.40625 C 1.644531 -0.40625 1.816406 -0.503906 1.953125 -0.703125 L 2.03125 -0.671875 C 1.96875 -0.472656 1.859375 -0.300781 1.703125 -0.15625 C 1.554688 -0.0078125 1.363281 0.0625 1.125 0.0625 C 0.820312 0.0625 0.582031 -0.03125 0.40625 -0.21875 C 0.226562 -0.40625 0.140625 -0.703125 0.140625 -1.109375 C 0.140625 -1.503906 0.238281 -1.800781 0.4375 -2 C 0.632812 -2.195312 0.898438 -2.296875 1.234375 -2.296875 C 1.785156 -2.296875 2.0625 -1.972656 2.0625 -1.328125 L 0.9375 -1.328125 C 0.9375 -1.296875 0.9375 -1.242188 0.9375 -1.171875 C 0.9375 -0.898438 0.984375 -0.703125 1.078125 -0.578125 C 1.179688 -0.460938 1.300781 -0.40625 1.4375 -0.40625 Z M 1.21875 -2.203125 C 1.050781 -2.203125 0.953125 -1.941406 0.921875 -1.421875 L 1.421875 -1.421875 C 1.429688 -1.648438 1.414062 -1.835938 1.375 -1.984375 C 1.34375 -2.128906 1.289062 -2.203125 1.21875 -2.203125 Z M 1.21875 -2.203125 "/></g></g></g><g fill="#ffffff" fill-opacity="1"><g transform="translate(43.450072, 33.643555)"><g><path d="M 1.671875 -2.296875 C 1.804688 -2.296875 1.90625 -2.253906 1.96875 -2.171875 C 2.03125 -2.085938 2.0625 -1.984375 2.0625 -1.859375 C 2.0625 -1.734375 2.023438 -1.628906 1.953125 -1.546875 C 1.878906 -1.472656 1.785156 -1.4375 1.671875 -1.4375 C 1.546875 -1.4375 1.445312 -1.460938 1.375 -1.515625 C 1.3125 -1.578125 1.28125 -1.65625 1.28125 -1.75 C 1.28125 -1.914062 1.351562 -2.050781 1.5 -2.15625 C 1.445312 -2.15625 1.398438 -2.144531 1.359375 -2.125 C 1.285156 -2.09375 1.222656 -2.039062 1.171875 -1.96875 C 1.128906 -1.894531 1.109375 -1.816406 1.109375 -1.734375 L 1.109375 -0.4375 C 1.109375 -0.300781 1.132812 -0.207031 1.1875 -0.15625 C 1.25 -0.113281 1.347656 -0.09375 1.484375 -0.09375 L 1.484375 0 C 1.441406 0 1.410156 0 1.390625 0 C 1.085938 -0.0078125 0.882812 -0.015625 0.78125 -0.015625 C 0.6875 -0.015625 0.488281 -0.0078125 0.1875 0 C 0.15625 0 0.125 0 0.09375 0 L 0.09375 -0.09375 C 0.175781 -0.09375 0.234375 -0.113281 0.265625 -0.15625 C 0.304688 -0.195312 0.328125 -0.28125 0.328125 -0.40625 L 0.328125 -1.765625 C 0.328125 -1.898438 0.304688 -1.992188 0.265625 -2.046875 C 0.234375 -2.109375 0.175781 -2.140625 0.09375 -2.140625 L 0.09375 -2.234375 C 0.1875 -2.222656 0.273438 -2.21875 0.359375 -2.21875 C 0.660156 -2.21875 0.910156 -2.238281 1.109375 -2.28125 L 1.109375 -1.96875 C 1.210938 -2.1875 1.398438 -2.296875 1.671875 -2.296875 Z M 1.671875 -2.296875 "/></g></g></g><g fill="#ffffff" fill-opacity="1"><g transform="translate(45.525845, 33.643555)"><g><path d="M 1 -2.296875 C 1.113281 -2.296875 1.21875 -2.28125 1.3125 -2.25 C 1.414062 -2.226562 1.492188 -2.207031 1.546875 -2.1875 C 1.578125 -2.164062 1.601562 -2.15625 1.625 -2.15625 C 1.675781 -2.15625 1.707031 -2.203125 1.71875 -2.296875 L 1.8125 -2.296875 C 1.800781 -2.140625 1.796875 -1.878906 1.796875 -1.515625 L 1.703125 -1.515625 C 1.679688 -1.703125 1.628906 -1.859375 1.546875 -1.984375 C 1.460938 -2.117188 1.335938 -2.1875 1.171875 -2.1875 C 1.097656 -2.1875 1.035156 -2.164062 0.984375 -2.125 C 0.941406 -2.082031 0.921875 -2.023438 0.921875 -1.953125 C 0.921875 -1.859375 0.953125 -1.773438 1.015625 -1.703125 C 1.078125 -1.628906 1.175781 -1.539062 1.3125 -1.4375 C 1.320312 -1.425781 1.363281 -1.390625 1.4375 -1.328125 C 1.601562 -1.203125 1.722656 -1.085938 1.796875 -0.984375 C 1.867188 -0.878906 1.90625 -0.753906 1.90625 -0.609375 C 1.90625 -0.472656 1.863281 -0.351562 1.78125 -0.25 C 1.707031 -0.15625 1.601562 -0.078125 1.46875 -0.015625 C 1.332031 0.0351562 1.1875 0.0625 1.03125 0.0625 C 0.851562 0.0625 0.707031 0.0234375 0.59375 -0.046875 C 0.539062 -0.078125 0.5 -0.0976562 0.46875 -0.109375 C 0.4375 -0.117188 0.40625 -0.125 0.375 -0.125 C 0.320312 -0.125 0.28125 -0.0703125 0.25 0.03125 L 0.171875 0.03125 C 0.179688 -0.132812 0.1875 -0.421875 0.1875 -0.828125 L 0.265625 -0.828125 C 0.296875 -0.597656 0.359375 -0.410156 0.453125 -0.265625 C 0.554688 -0.117188 0.6875 -0.046875 0.84375 -0.046875 C 0.914062 -0.046875 0.972656 -0.0664062 1.015625 -0.109375 C 1.066406 -0.148438 1.09375 -0.207031 1.09375 -0.28125 C 1.09375 -0.363281 1.070312 -0.4375 1.03125 -0.5 C 1 -0.5625 0.957031 -0.617188 0.90625 -0.671875 C 0.863281 -0.722656 0.789062 -0.796875 0.6875 -0.890625 C 0.570312 -1.003906 0.476562 -1.09375 0.40625 -1.15625 C 0.34375 -1.21875 0.289062 -1.289062 0.25 -1.375 C 0.207031 -1.46875 0.1875 -1.566406 0.1875 -1.671875 C 0.1875 -1.796875 0.222656 -1.90625 0.296875 -2 C 0.367188 -2.09375 0.46875 -2.164062 0.59375 -2.21875 C 0.71875 -2.269531 0.851562 -2.296875 1 -2.296875 Z M 1 -2.296875 "/></g></g></g><g fill="#ffffff" fill-opacity="1"><g transform="translate(47.562783, 33.643555)"><g/></g></g><g fill="#ffffff" fill-opacity="1"><g transform="translate(48.525151, 33.643555)"><g><path d="M 4 -2.484375 C 4 -2.273438 3.925781 -2.101562 3.78125 -1.96875 C 3.644531 -1.84375 3.441406 -1.742188 3.171875 -1.671875 C 3.253906 -1.617188 3.320312 -1.53125 3.375 -1.40625 C 3.425781 -1.289062 3.453125 -1.160156 3.453125 -1.015625 C 3.453125 -0.796875 3.382812 -0.601562 3.25 -0.4375 C 3.113281 -0.28125 2.921875 -0.15625 2.671875 -0.0625 C 2.429688 0.0195312 2.160156 0.0625 1.859375 0.0625 C 1.492188 0.0625 1.179688 0.0195312 0.921875 -0.0625 C 0.671875 -0.15625 0.476562 -0.28125 0.34375 -0.4375 C 0.207031 -0.601562 0.140625 -0.796875 0.140625 -1.015625 C 0.140625 -1.210938 0.191406 -1.378906 0.296875 -1.515625 C 0.410156 -1.648438 0.535156 -1.753906 0.671875 -1.828125 C 0.816406 -1.898438 0.945312 -1.945312 1.0625 -1.96875 C 0.90625 -2.03125 0.78125 -2.101562 0.6875 -2.1875 C 0.59375 -2.269531 0.546875 -2.378906 0.546875 -2.515625 C 0.546875 -2.648438 0.59375 -2.757812 0.6875 -2.84375 C 0.789062 -2.925781 0.910156 -2.984375 1.046875 -3.015625 C 1.191406 -3.054688 1.335938 -3.078125 1.484375 -3.078125 C 1.597656 -3.078125 1.6875 -3.070312 1.75 -3.0625 C 1.8125 -3.050781 1.875 -3.035156 1.9375 -3.015625 C 2.03125 -2.992188 2.109375 -2.953125 2.171875 -2.890625 C 2.234375 -2.828125 2.265625 -2.742188 2.265625 -2.640625 C 2.265625 -2.546875 2.226562 -2.46875 2.15625 -2.40625 C 2.082031 -2.34375 1.988281 -2.3125 1.875 -2.3125 C 1.769531 -2.3125 1.679688 -2.335938 1.609375 -2.390625 C 1.535156 -2.441406 1.5 -2.515625 1.5 -2.609375 C 1.5 -2.691406 1.523438 -2.765625 1.578125 -2.828125 C 1.640625 -2.898438 1.71875 -2.945312 1.8125 -2.96875 C 1.75 -2.988281 1.664062 -3 1.5625 -3 C 1.394531 -3 1.253906 -2.945312 1.140625 -2.84375 C 1.035156 -2.75 0.984375 -2.601562 0.984375 -2.40625 C 0.984375 -2.257812 1.03125 -2.125 1.125 -2 C 1.21875 -2.03125 1.289062 -2.046875 1.34375 -2.046875 C 1.394531 -2.046875 1.429688 -2.03125 1.453125 -2 C 1.484375 -1.976562 1.5 -1.953125 1.5 -1.921875 C 1.5 -1.890625 1.488281 -1.863281 1.46875 -1.84375 C 1.445312 -1.820312 1.414062 -1.8125 1.375 -1.8125 C 1.300781 -1.8125 1.21875 -1.851562 1.125 -1.9375 C 1 -1.851562 0.898438 -1.753906 0.828125 -1.640625 C 0.765625 -1.535156 0.734375 -1.40625 0.734375 -1.25 C 0.734375 -0.976562 0.84375 -0.78125 1.0625 -0.65625 C 1.289062 -0.53125 1.625 -0.46875 2.0625 -0.46875 C 2.257812 -0.46875 2.453125 -0.492188 2.640625 -0.546875 C 2.828125 -0.609375 2.984375 -0.691406 3.109375 -0.796875 C 3.234375 -0.910156 3.296875 -1.046875 3.296875 -1.203125 C 3.296875 -1.285156 3.28125 -1.363281 3.25 -1.4375 C 3.226562 -1.519531 3.175781 -1.59375 3.09375 -1.65625 L 2.8125 -1.609375 L 2.5 -1.5625 C 2.175781 -1.5 1.941406 -1.4375 1.796875 -1.375 C 1.660156 -1.3125 1.59375 -1.222656 1.59375 -1.109375 C 1.59375 -1.015625 1.640625 -0.929688 1.734375 -0.859375 C 1.835938 -0.796875 1.957031 -0.765625 2.09375 -0.765625 C 2.125 -0.765625 2.164062 -0.765625 2.21875 -0.765625 C 2.0625 -0.828125 1.984375 -0.9375 1.984375 -1.09375 C 1.984375 -1.195312 2.019531 -1.273438 2.09375 -1.328125 C 2.175781 -1.390625 2.28125 -1.421875 2.40625 -1.421875 C 2.53125 -1.421875 2.628906 -1.390625 2.703125 -1.328125 C 2.773438 -1.265625 2.8125 -1.1875 2.8125 -1.09375 C 2.8125 -0.945312 2.75 -0.84375 2.625 -0.78125 C 2.507812 -0.71875 2.34375 -0.6875 2.125 -0.6875 C 1.914062 -0.6875 1.742188 -0.734375 1.609375 -0.828125 C 1.484375 -0.929688 1.421875 -1.078125 1.421875 -1.265625 C 1.421875 -1.523438 1.523438 -1.722656 1.734375 -1.859375 C 1.941406 -2.003906 2.238281 -2.109375 2.625 -2.171875 C 2.707031 -2.179688 2.765625 -2.191406 2.796875 -2.203125 L 3 -2.234375 C 3.28125 -2.273438 3.488281 -2.328125 3.625 -2.390625 C 3.757812 -2.453125 3.828125 -2.546875 3.828125 -2.671875 C 3.828125 -2.773438 3.78125 -2.859375 3.6875 -2.921875 C 3.59375 -2.992188 3.484375 -3.03125 3.359375 -3.03125 C 3.328125 -3.03125 3.285156 -3.023438 3.234375 -3.015625 C 3.328125 -2.984375 3.394531 -2.9375 3.4375 -2.875 C 3.476562 -2.820312 3.5 -2.765625 3.5 -2.703125 C 3.5 -2.597656 3.460938 -2.515625 3.390625 -2.453125 C 3.316406 -2.398438 3.21875 -2.375 3.09375 -2.375 C 2.96875 -2.375 2.867188 -2.40625 2.796875 -2.46875 C 2.722656 -2.53125 2.6875 -2.609375 2.6875 -2.703125 C 2.6875 -2.828125 2.734375 -2.925781 2.828125 -3 C 2.921875 -3.070312 3.066406 -3.109375 3.265625 -3.109375 C 3.484375 -3.109375 3.660156 -3.050781 3.796875 -2.9375 C 3.929688 -2.832031 4 -2.679688 4 -2.484375 Z M 4 -2.484375 "/></g></g></g><g fill="#ffffff" fill-opacity="1"><g transform="translate(52.567952, 33.643555)"><g/></g></g><g fill="#ffffff" fill-opacity="1"><g transform="translate(53.53032, 33.643555)"><g/></g></g><g fill="#ffffff" fill-opacity="1"><g transform="translate(54.489703, 33.643555)"><g><path d="M 1.296875 -3.109375 C 1.460938 -3.109375 1.597656 -3.09375 1.703125 -3.0625 C 1.804688 -3.03125 1.90625 -2.988281 2 -2.9375 C 2.03125 -2.925781 2.054688 -2.910156 2.078125 -2.890625 C 2.109375 -2.878906 2.128906 -2.875 2.140625 -2.875 C 2.171875 -2.875 2.191406 -2.890625 2.203125 -2.921875 C 2.222656 -2.953125 2.238281 -3.003906 2.25 -3.078125 L 2.34375 -3.078125 C 2.320312 -2.867188 2.3125 -2.515625 2.3125 -2.015625 L 2.21875 -2.015625 C 2.207031 -2.179688 2.171875 -2.335938 2.109375 -2.484375 C 2.046875 -2.640625 1.957031 -2.765625 1.84375 -2.859375 C 1.738281 -2.953125 1.613281 -3 1.46875 -3 C 1.332031 -3 1.222656 -2.960938 1.140625 -2.890625 C 1.066406 -2.816406 1.03125 -2.71875 1.03125 -2.59375 C 1.03125 -2.5 1.050781 -2.414062 1.09375 -2.34375 C 1.132812 -2.269531 1.195312 -2.195312 1.28125 -2.125 C 1.363281 -2.0625 1.5 -1.960938 1.6875 -1.828125 C 1.707031 -1.816406 1.722656 -1.804688 1.734375 -1.796875 C 1.753906 -1.785156 1.773438 -1.773438 1.796875 -1.765625 C 1.953125 -1.660156 2.078125 -1.5625 2.171875 -1.46875 C 2.265625 -1.382812 2.335938 -1.285156 2.390625 -1.171875 C 2.453125 -1.066406 2.484375 -0.941406 2.484375 -0.796875 C 2.484375 -0.609375 2.429688 -0.445312 2.328125 -0.3125 C 2.222656 -0.1875 2.082031 -0.09375 1.90625 -0.03125 C 1.726562 0.03125 1.53125 0.0625 1.3125 0.0625 C 1.132812 0.0625 0.988281 0.046875 0.875 0.015625 C 0.757812 -0.015625 0.648438 -0.0507812 0.546875 -0.09375 C 0.484375 -0.132812 0.4375 -0.15625 0.40625 -0.15625 C 0.375 -0.15625 0.351562 -0.140625 0.34375 -0.109375 C 0.332031 -0.078125 0.320312 -0.03125 0.3125 0.03125 L 0.21875 0.03125 C 0.226562 -0.164062 0.234375 -0.582031 0.234375 -1.21875 L 0.328125 -1.21875 C 0.347656 -0.875 0.421875 -0.59375 0.546875 -0.375 C 0.671875 -0.164062 0.859375 -0.0625 1.109375 -0.0625 C 1.265625 -0.0625 1.390625 -0.0976562 1.484375 -0.171875 C 1.578125 -0.253906 1.625 -0.359375 1.625 -0.484375 C 1.625 -0.648438 1.570312 -0.789062 1.46875 -0.90625 C 1.375 -1.03125 1.21875 -1.160156 1 -1.296875 C 0.820312 -1.410156 0.679688 -1.507812 0.578125 -1.59375 C 0.484375 -1.6875 0.398438 -1.789062 0.328125 -1.90625 C 0.265625 -2.019531 0.234375 -2.148438 0.234375 -2.296875 C 0.234375 -2.472656 0.28125 -2.625 0.375 -2.75 C 0.476562 -2.875 0.609375 -2.960938 0.765625 -3.015625 C 0.929688 -3.078125 1.109375 -3.109375 1.296875 -3.109375 Z M 1.296875 -3.109375 "/></g></g></g><g fill="#ffffff" fill-opacity="1"><g transform="translate(57.135128, 33.643555)"><g><path d="M 2.359375 -0.46875 C 2.359375 -0.332031 2.375 -0.234375 2.40625 -0.171875 C 2.445312 -0.117188 2.515625 -0.09375 2.609375 -0.09375 L 2.609375 0 C 2.515625 -0.0078125 2.425781 -0.015625 2.34375 -0.015625 C 2.039062 -0.015625 1.789062 0.00390625 1.59375 0.046875 L 1.59375 -0.265625 C 1.457031 -0.046875 1.226562 0.0625 0.90625 0.0625 C 0.675781 0.0625 0.507812 0.00390625 0.40625 -0.109375 C 0.363281 -0.160156 0.332031 -0.226562 0.3125 -0.3125 C 0.289062 -0.40625 0.28125 -0.523438 0.28125 -0.671875 L 0.28125 -1.765625 C 0.28125 -1.898438 0.265625 -1.992188 0.234375 -2.046875 C 0.203125 -2.109375 0.140625 -2.140625 0.046875 -2.140625 L 0.046875 -2.234375 C 0.140625 -2.222656 0.226562 -2.21875 0.3125 -2.21875 C 0.613281 -2.21875 0.863281 -2.238281 1.0625 -2.28125 L 1.0625 -0.4375 C 1.0625 -0.34375 1.078125 -0.269531 1.109375 -0.21875 C 1.148438 -0.175781 1.207031 -0.15625 1.28125 -0.15625 C 1.363281 -0.15625 1.4375 -0.1875 1.5 -0.25 C 1.5625 -0.3125 1.59375 -0.382812 1.59375 -0.46875 L 1.59375 -1.765625 C 1.59375 -1.898438 1.570312 -1.992188 1.53125 -2.046875 C 1.5 -2.109375 1.4375 -2.140625 1.34375 -2.140625 L 1.34375 -2.234375 C 1.4375 -2.222656 1.523438 -2.21875 1.609375 -2.21875 C 1.910156 -2.21875 2.160156 -2.238281 2.359375 -2.28125 Z M 2.359375 -0.46875 "/></g></g></g><g fill="#ffffff" fill-opacity="1"><g transform="translate(59.819394, 33.643555)"><g><path d="M 1.75 -2.296875 C 1.976562 -2.296875 2.160156 -2.203125 2.296875 -2.015625 C 2.429688 -1.835938 2.5 -1.570312 2.5 -1.21875 C 2.5 -0.757812 2.40625 -0.429688 2.21875 -0.234375 C 2.039062 -0.0351562 1.800781 0.0625 1.5 0.0625 C 1.332031 0.0625 1.195312 0.0351562 1.09375 -0.015625 L 1.09375 0.34375 C 1.09375 0.46875 1.125 0.554688 1.1875 0.609375 C 1.25 0.660156 1.34375 0.6875 1.46875 0.6875 L 1.46875 0.78125 L 1.34375 0.78125 C 1 0.769531 0.773438 0.765625 0.671875 0.765625 C 0.585938 0.765625 0.390625 0.769531 0.078125 0.78125 L 0.078125 0.6875 C 0.171875 0.6875 0.234375 0.664062 0.265625 0.625 C 0.296875 0.582031 0.3125 0.5 0.3125 0.375 L 0.3125 -1.765625 C 0.3125 -1.898438 0.296875 -1.992188 0.265625 -2.046875 C 0.234375 -2.109375 0.171875 -2.140625 0.078125 -2.140625 L 0.078125 -2.234375 C 0.171875 -2.222656 0.257812 -2.21875 0.34375 -2.21875 C 0.644531 -2.21875 0.894531 -2.238281 1.09375 -2.28125 L 1.09375 -1.96875 C 1.226562 -2.1875 1.445312 -2.296875 1.75 -2.296875 Z M 1.25 -0.0625 C 1.40625 -0.0625 1.515625 -0.144531 1.578125 -0.3125 C 1.648438 -0.488281 1.6875 -0.753906 1.6875 -1.109375 C 1.6875 -1.460938 1.660156 -1.710938 1.609375 -1.859375 C 1.566406 -2.003906 1.5 -2.078125 1.40625 -2.078125 C 1.320312 -2.078125 1.25 -2.046875 1.1875 -1.984375 C 1.125 -1.921875 1.09375 -1.847656 1.09375 -1.765625 L 1.09375 -0.109375 C 1.132812 -0.078125 1.1875 -0.0625 1.25 -0.0625 Z M 1.25 -0.0625 "/></g></g></g><g fill="#ffffff" fill-opacity="1"><g transform="translate(62.460507, 33.643555)"><g><path d="M 1.75 -2.296875 C 1.976562 -2.296875 2.160156 -2.203125 2.296875 -2.015625 C 2.429688 -1.835938 2.5 -1.570312 2.5 -1.21875 C 2.5 -0.757812 2.40625 -0.429688 2.21875 -0.234375 C 2.039062 -0.0351562 1.800781 0.0625 1.5 0.0625 C 1.332031 0.0625 1.195312 0.0351562 1.09375 -0.015625 L 1.09375 0.34375 C 1.09375 0.46875 1.125 0.554688 1.1875 0.609375 C 1.25 0.660156 1.34375 0.6875 1.46875 0.6875 L 1.46875 0.78125 L 1.34375 0.78125 C 1 0.769531 0.773438 0.765625 0.671875 0.765625 C 0.585938 0.765625 0.390625 0.769531 0.078125 0.78125 L 0.078125 0.6875 C 0.171875 0.6875 0.234375 0.664062 0.265625 0.625 C 0.296875 0.582031 0.3125 0.5 0.3125 0.375 L 0.3125 -1.765625 C 0.3125 -1.898438 0.296875 -1.992188 0.265625 -2.046875 C 0.234375 -2.109375 0.171875 -2.140625 0.078125 -2.140625 L 0.078125 -2.234375 C 0.171875 -2.222656 0.257812 -2.21875 0.34375 -2.21875 C 0.644531 -2.21875 0.894531 -2.238281 1.09375 -2.28125 L 1.09375 -1.96875 C 1.226562 -2.1875 1.445312 -2.296875 1.75 -2.296875 Z M 1.25 -0.0625 C 1.40625 -0.0625 1.515625 -0.144531 1.578125 -0.3125 C 1.648438 -0.488281 1.6875 -0.753906 1.6875 -1.109375 C 1.6875 -1.460938 1.660156 -1.710938 1.609375 -1.859375 C 1.566406 -2.003906 1.5 -2.078125 1.40625 -2.078125 C 1.320312 -2.078125 1.25 -2.046875 1.1875 -1.984375 C 1.125 -1.921875 1.09375 -1.847656 1.09375 -1.765625 L 1.09375 -0.109375 C 1.132812 -0.078125 1.1875 -0.0625 1.25 -0.0625 Z M 1.25 -0.0625 "/></g></g></g><g fill="#ffffff" fill-opacity="1"><g transform="translate(65.101619, 33.643555)"><g><path d="M 1.09375 -0.40625 C 1.09375 -0.28125 1.109375 -0.195312 1.140625 -0.15625 C 1.179688 -0.113281 1.25 -0.09375 1.34375 -0.09375 L 1.34375 0 C 1.03125 -0.0078125 0.820312 -0.015625 0.71875 -0.015625 C 0.625 -0.015625 0.410156 -0.0078125 0.078125 0 L 0.078125 -0.09375 C 0.171875 -0.09375 0.234375 -0.113281 0.265625 -0.15625 C 0.296875 -0.195312 0.3125 -0.28125 0.3125 -0.40625 L 0.3125 -2.859375 C 0.3125 -2.984375 0.296875 -3.078125 0.265625 -3.140625 C 0.234375 -3.203125 0.171875 -3.234375 0.078125 -3.234375 L 0.078125 -3.328125 C 0.171875 -3.316406 0.257812 -3.3125 0.34375 -3.3125 C 0.644531 -3.3125 0.894531 -3.332031 1.09375 -3.375 Z M 1.09375 -0.40625 "/></g></g></g><g fill="#ffffff" fill-opacity="1"><g transform="translate(66.51712, 33.643555)"><g><path d="M 0.703125 -3.375 C 0.847656 -3.375 0.960938 -3.34375 1.046875 -3.28125 C 1.128906 -3.21875 1.171875 -3.125 1.171875 -3 C 1.171875 -2.882812 1.128906 -2.789062 1.046875 -2.71875 C 0.960938 -2.65625 0.847656 -2.625 0.703125 -2.625 C 0.546875 -2.625 0.425781 -2.65625 0.34375 -2.71875 C 0.269531 -2.789062 0.234375 -2.882812 0.234375 -3 C 0.234375 -3.125 0.269531 -3.21875 0.34375 -3.28125 C 0.425781 -3.34375 0.546875 -3.375 0.703125 -3.375 Z M 1.109375 -0.40625 C 1.109375 -0.28125 1.125 -0.195312 1.15625 -0.15625 C 1.195312 -0.113281 1.257812 -0.09375 1.34375 -0.09375 L 1.34375 0 C 1.039062 -0.0078125 0.835938 -0.015625 0.734375 -0.015625 C 0.640625 -0.015625 0.425781 -0.0078125 0.09375 0 L 0.09375 -0.09375 C 0.175781 -0.09375 0.234375 -0.113281 0.265625 -0.15625 C 0.304688 -0.195312 0.328125 -0.28125 0.328125 -0.40625 L 0.328125 -1.765625 C 0.328125 -1.898438 0.304688 -1.992188 0.265625 -2.046875 C 0.234375 -2.109375 0.175781 -2.140625 0.09375 -2.140625 L 0.09375 -2.234375 C 0.1875 -2.222656 0.273438 -2.21875 0.359375 -2.21875 C 0.660156 -2.21875 0.910156 -2.238281 1.109375 -2.28125 Z M 1.109375 -0.40625 "/></g></g></g><g fill="#ffffff" fill-opacity="1"><g transform="translate(67.941246, 33.643555)"><g><path d="M 1.4375 -0.40625 C 1.644531 -0.40625 1.816406 -0.503906 1.953125 -0.703125 L 2.03125 -0.671875 C 1.96875 -0.472656 1.859375 -0.300781 1.703125 -0.15625 C 1.554688 -0.0078125 1.363281 0.0625 1.125 0.0625 C 0.820312 0.0625 0.582031 -0.03125 0.40625 -0.21875 C 0.226562 -0.40625 0.140625 -0.703125 0.140625 -1.109375 C 0.140625 -1.503906 0.238281 -1.800781 0.4375 -2 C 0.632812 -2.195312 0.898438 -2.296875 1.234375 -2.296875 C 1.785156 -2.296875 2.0625 -1.972656 2.0625 -1.328125 L 0.9375 -1.328125 C 0.9375 -1.296875 0.9375 -1.242188 0.9375 -1.171875 C 0.9375 -0.898438 0.984375 -0.703125 1.078125 -0.578125 C 1.179688 -0.460938 1.300781 -0.40625 1.4375 -0.40625 Z M 1.21875 -2.203125 C 1.050781 -2.203125 0.953125 -1.941406 0.921875 -1.421875 L 1.421875 -1.421875 C 1.429688 -1.648438 1.414062 -1.835938 1.375 -1.984375 C 1.34375 -2.128906 1.289062 -2.203125 1.21875 -2.203125 Z M 1.21875 -2.203125 "/></g></g></g><g fill="#ffffff" fill-opacity="1"><g transform="translate(70.111963, 33.643555)"><g><path d="M 1.671875 -2.296875 C 1.804688 -2.296875 1.90625 -2.253906 1.96875 -2.171875 C 2.03125 -2.085938 2.0625 -1.984375 2.0625 -1.859375 C 2.0625 -1.734375 2.023438 -1.628906 1.953125 -1.546875 C 1.878906 -1.472656 1.785156 -1.4375 1.671875 -1.4375 C 1.546875 -1.4375 1.445312 -1.460938 1.375 -1.515625 C 1.3125 -1.578125 1.28125 -1.65625 1.28125 -1.75 C 1.28125 -1.914062 1.351562 -2.050781 1.5 -2.15625 C 1.445312 -2.15625 1.398438 -2.144531 1.359375 -2.125 C 1.285156 -2.09375 1.222656 -2.039062 1.171875 -1.96875 C 1.128906 -1.894531 1.109375 -1.816406 1.109375 -1.734375 L 1.109375 -0.4375 C 1.109375 -0.300781 1.132812 -0.207031 1.1875 -0.15625 C 1.25 -0.113281 1.347656 -0.09375 1.484375 -0.09375 L 1.484375 0 C 1.441406 0 1.410156 0 1.390625 0 C 1.085938 -0.0078125 0.882812 -0.015625 0.78125 -0.015625 C 0.6875 -0.015625 0.488281 -0.0078125 0.1875 0 C 0.15625 0 0.125 0 0.09375 0 L 0.09375 -0.09375 C 0.175781 -0.09375 0.234375 -0.113281 0.265625 -0.15625 C 0.304688 -0.195312 0.328125 -0.28125 0.328125 -0.40625 L 0.328125 -1.765625 C 0.328125 -1.898438 0.304688 -1.992188 0.265625 -2.046875 C 0.234375 -2.109375 0.175781 -2.140625 0.09375 -2.140625 L 0.09375 -2.234375 C 0.1875 -2.222656 0.273438 -2.21875 0.359375 -2.21875 C 0.660156 -2.21875 0.910156 -2.238281 1.109375 -2.28125 L 1.109375 -1.96875 C 1.210938 -2.1875 1.398438 -2.296875 1.671875 -2.296875 Z M 1.671875 -2.296875 "/></g></g></g><g fill="#ffffff" fill-opacity="1"><g transform="translate(72.187736, 33.643555)"><g><path d="M 1 -2.296875 C 1.113281 -2.296875 1.21875 -2.28125 1.3125 -2.25 C 1.414062 -2.226562 1.492188 -2.207031 1.546875 -2.1875 C 1.578125 -2.164062 1.601562 -2.15625 1.625 -2.15625 C 1.675781 -2.15625 1.707031 -2.203125 1.71875 -2.296875 L 1.8125 -2.296875 C 1.800781 -2.140625 1.796875 -1.878906 1.796875 -1.515625 L 1.703125 -1.515625 C 1.679688 -1.703125 1.628906 -1.859375 1.546875 -1.984375 C 1.460938 -2.117188 1.335938 -2.1875 1.171875 -2.1875 C 1.097656 -2.1875 1.035156 -2.164062 0.984375 -2.125 C 0.941406 -2.082031 0.921875 -2.023438 0.921875 -1.953125 C 0.921875 -1.859375 0.953125 -1.773438 1.015625 -1.703125 C 1.078125 -1.628906 1.175781 -1.539062 1.3125 -1.4375 C 1.320312 -1.425781 1.363281 -1.390625 1.4375 -1.328125 C 1.601562 -1.203125 1.722656 -1.085938 1.796875 -0.984375 C 1.867188 -0.878906 1.90625 -0.753906 1.90625 -0.609375 C 1.90625 -0.472656 1.863281 -0.351562 1.78125 -0.25 C 1.707031 -0.15625 1.601562 -0.078125 1.46875 -0.015625 C 1.332031 0.0351562 1.1875 0.0625 1.03125 0.0625 C 0.851562 0.0625 0.707031 0.0234375 0.59375 -0.046875 C 0.539062 -0.078125 0.5 -0.0976562 0.46875 -0.109375 C 0.4375 -0.117188 0.40625 -0.125 0.375 -0.125 C 0.320312 -0.125 0.28125 -0.0703125 0.25 0.03125 L 0.171875 0.03125 C 0.179688 -0.132812 0.1875 -0.421875 0.1875 -0.828125 L 0.265625 -0.828125 C 0.296875 -0.597656 0.359375 -0.410156 0.453125 -0.265625 C 0.554688 -0.117188 0.6875 -0.046875 0.84375 -0.046875 C 0.914062 -0.046875 0.972656 -0.0664062 1.015625 -0.109375 C 1.066406 -0.148438 1.09375 -0.207031 1.09375 -0.28125 C 1.09375 -0.363281 1.070312 -0.4375 1.03125 -0.5 C 1 -0.5625 0.957031 -0.617188 0.90625 -0.671875 C 0.863281 -0.722656 0.789062 -0.796875 0.6875 -0.890625 C 0.570312 -1.003906 0.476562 -1.09375 0.40625 -1.15625 C 0.34375 -1.21875 0.289062 -1.289062 0.25 -1.375 C 0.207031 -1.46875 0.1875 -1.566406 0.1875 -1.671875 C 0.1875 -1.796875 0.222656 -1.90625 0.296875 -2 C 0.367188 -2.09375 0.46875 -2.164062 0.59375 -2.21875 C 0.71875 -2.269531 0.851562 -2.296875 1 -2.296875 Z M 1 -2.296875 "/></g></g></g></svg>